<svg id="logo" xmlns="http://www.w3.org/2000/svg" width="314.45" height="89" viewBox="0 0 314.45 89">
  <g id="city-of-compton-logo" transform="translate(0 0)">
    <ellipse id="Ellipse_183" data-name="Ellipse 183" cx="44.001" cy="43.758" rx="44.001" ry="43.758" transform="translate(0.621 0.192)" fill="#fff"/>
    <ellipse id="Ellipse_184" data-name="Ellipse 184" cx="44.001" cy="43.758" rx="44.001" ry="43.758" transform="translate(0.621 0.192)" fill="none" stroke="#231f20" stroke-miterlimit="10" stroke-width="0.216"/>
    <path id="Path_35478" data-name="Path 35478" d="M294.917,48.969h0l-.06-2.283-.172-2.256-.283-2.219-.395-2.189-.5-2.152-.6-2.109-.7-2.065-.8-2.02-.893-1.969-.985-1.919-1.072-1.864-1.159-1.8-1.242-1.745-1.32-1.683-1.4-1.614-1.476-1.547-1.547-1.475-1.613-1.4-1.679-1.324-1.744-1.241-1.807-1.158-1.86-1.076L269.7,8.873l-1.97-.893-2.019-.8-2.064-.7-2.108-.6-2.148-.5L257.2,4.985,254.983,4.7,252.73,4.53l-2.28-.06V5.981l2.209.054,2.177.167,2.144.277,2.112.377,2.077.48,2.035.582L265.2,8.6l1.948.772,1.9.862,1.853.953,1.8,1.035,1.742,1.123,1.684,1.2,1.626,1.275,1.561,1.353,1.492,1.426,1.423,1.495,1.353,1.562,1.279,1.623,1.2,1.687,1.117,1.747,1.038,1.8.951,1.853.862,1.9.77,1.949.677,1.995.581,2.038.482,2.074.377,2.113.275,2.149.167,2.178.054,2.207" transform="translate(-205.983 -4.47)" fill="#004fa3"/>
    <path id="Path_35479" data-name="Path 35479" d="M250.45,294.581h0l2.28-.06,2.253-.174,2.222-.281,2.186-.395,2.148-.5,2.108-.6,2.064-.7,2.019-.8,1.97-.893,1.916-.982,1.86-1.076,1.807-1.158,1.744-1.243,1.679-1.323,1.613-1.4,1.547-1.475,1.476-1.547,1.4-1.614,1.32-1.683,1.242-1.745,1.159-1.8,1.072-1.864.985-1.919.893-1.969.8-2.02.7-2.065.6-2.109.5-2.152.395-2.189.283-2.221.172-2.254.06-2.285h-1.5l-.054,2.209-.167,2.178-.275,2.149-.377,2.113-.482,2.074-.581,2.038-.677,1.995-.77,1.949-.862,1.9-.951,1.853-1.038,1.8-1.117,1.747-1.2,1.685-1.279,1.625-1.353,1.562-1.423,1.493-1.492,1.428-1.561,1.353-1.626,1.276-1.684,1.2-1.742,1.123-1.8,1.035-1.853.953-1.9.862-1.948.77-1.994.679-2.035.582-2.077.48-2.112.377-2.144.277-2.177.167-2.209.054" transform="translate(-205.983 -205.581)" fill="#004fa3"/>
    <path id="Path_35480" data-name="Path 35480" d="M4.9,250.08h0l.06,2.285.172,2.254.283,2.221.395,2.189.5,2.152.6,2.109.7,2.065.8,2.02.893,1.969.985,1.919,1.072,1.864,1.159,1.8,1.242,1.745,1.32,1.683,1.4,1.614,1.474,1.547L19.5,283l1.614,1.4,1.679,1.323,1.744,1.243,1.807,1.158L28.2,289.2l1.916.982,1.972.893,2.017.8,2.064.7,2.108.6,2.148.5,2.188.395,2.22.281,2.255.174,2.278.06V293.07l-2.207-.054-2.177-.167-2.146-.277-2.112-.377-2.075-.48-2.037-.582-1.994-.679-1.949-.77-1.9-.862-1.853-.953-1.8-1.035-1.74-1.123-1.686-1.2-1.626-1.276L20.5,281.88l-1.492-1.428-1.423-1.493L16.234,277.4l-1.278-1.625-1.2-1.685-1.117-1.747-1.038-1.8-.949-1.853-.864-1.9-.77-1.949-.677-1.995L7.759,260.8l-.482-2.074L6.9,256.615l-.275-2.149-.167-2.178L6.4,250.08" transform="translate(-4.9 -205.581)" fill="#004fa3"/>
    <path id="Path_35481" data-name="Path 35481" d="M49.367,4.47h0l-2.278.06L44.834,4.7l-2.22.283-2.188.395-2.148.5-2.108.6-2.064.7-2.017.8-1.972.893L28.2,9.855l-1.86,1.076-1.807,1.158L22.79,13.33l-1.679,1.324-1.614,1.4-1.547,1.475-1.474,1.547-1.4,1.614-1.32,1.683-1.242,1.745-1.159,1.8-1.072,1.864L9.3,29.706l-.893,1.969-.8,2.02-.7,2.065-.6,2.109-.5,2.152-.395,2.189-.283,2.219L4.96,46.686,4.9,48.969H6.4l.054-2.207.167-2.178L6.9,42.436l.377-2.113.482-2.074.581-2.038.677-1.995.77-1.949.864-1.9.949-1.853,1.038-1.8,1.117-1.747,1.2-1.687,1.278-1.623,1.353-1.562L19.011,18.6,20.5,17.171l1.561-1.353,1.626-1.275,1.686-1.2,1.74-1.123,1.8-1.035,1.853-.953,1.9-.862L34.619,8.6l1.994-.678,2.037-.582,2.075-.48,2.112-.377L44.983,6.2l2.177-.167,2.207-.054" transform="translate(-4.9 -4.47)" fill="#004fa3"/>
    <path id="Path_35482" data-name="Path 35482" d="M65.216,103.256l-1.3-.261c-2.8-.977-3.555-1.475-6.22-.433-.607.13-4.507.824-4.507.239a25.583,25.583,0,0,1,4.075-.977,12.91,12.91,0,0,0-2.168-.217,11.87,11.87,0,0,1-6.2.261v-.13a22.389,22.389,0,0,1,4.616-.411,22.85,22.85,0,0,0-3.251-.65,11.574,11.574,0,0,1-5.851-.261v-.13a18.01,18.01,0,0,1,4.833.022c-1.1-.39-2.211-.781-3.316-1.149A15.448,15.448,0,0,1,42.4,98.94a13.619,13.619,0,0,0-2.383-.824v-.152a13.155,13.155,0,0,1,4.616.824H45c-.911-.433-1.8-.868-2.687-1.3A10.092,10.092,0,0,1,36.2,95.645a11.165,11.165,0,0,1,4.594,1.17v-.152l-2.666-1.627a11.875,11.875,0,0,1-5.677-2.645,8.637,8.637,0,0,1,2.861.824c.867.52.867.52.976.5-1.668-1.323-1.668-1.323-1.842-1.388v-.152c-1.6-.109-5.266-2.1-5.483-3.252a10.047,10.047,0,0,1,2.687,1.149c1.518,1.149,1.518,1.149,1.668,1.192-.715-.737-1.431-1.453-2.146-2.169-1.929-.629-4.464-2.19-5.114-3.924a14.845,14.845,0,0,1,3.922,2.71c-.022-.152-.022-.152-1.885-2.515l-1.431-.781c-.933-.737-.933-.737-1.1-.781v-.152a5.884,5.884,0,0,1-1.733-2.1c-.087-.022-.152-.043-.217-.065a4.015,4.015,0,0,1-.109-.411c.933,0,2.32,1.5,3.1,2.277a20.251,20.251,0,0,0-1.192-2.3c-2.255-1.192-2.926-2.321-4.009-4.272a1.059,1.059,0,0,1,.022-.261,18.938,18.938,0,0,1,3.229,3.426,12.659,12.659,0,0,0-1.387-3.187,9.673,9.673,0,0,1-3.337-4.749,11.583,11.583,0,0,1,2.839,3.535,18.171,18.171,0,0,0-.889-2.884c-1.322-.607-2.948-4.163-2.839-5.312a15.224,15.224,0,0,1,2.427,3.946c-.174-.933-.346-1.843-.5-2.754-.174-.3-.694-.824-1.148-1.518a8.866,8.866,0,0,1-1.061-4.163,13.107,13.107,0,0,1,1.929,4.357,25.524,25.524,0,0,0-.346-3.772c-1.518-1.518-1.561-3.99-1.518-5.854a11.344,11.344,0,0,1,1.518,5.138l.13-4.294a9.1,9.1,0,0,1-.824-6.158h.13A14.949,14.949,0,0,1,20.6,57.26a25.533,25.533,0,0,0,.52-3.535,10.485,10.485,0,0,1-.043-6.267,19.234,19.234,0,0,1,.389,4.792c.239-.846.476-1.69.737-2.515,0-2.71-.174-4.531.933-6.939a21.456,21.456,0,0,1-.152,4.531c.3-.716.628-1.431.954-2.147a11.924,11.924,0,0,1,1.6-6.245,12.479,12.479,0,0,1-.239,2.71c-.368,1.083-.368,1.083-.346,1.257.368-.65.759-1.279,1.148-1.908.5-1.518.933-5.29,2.492-6.071a12.192,12.192,0,0,1-1.061,3.665c1.213-.39,1.863-3.187,2.168-4.163.283-.65,1.126-2.689,1.885-2.689a14.651,14.651,0,0,1-.715,2.321c-.476.89-.476.89-.476,1.04a17.761,17.761,0,0,0,1.776-2.06A13.1,13.1,0,0,1,34.141,29.4c.846-.781,1.018-.824,1.083-.955,0,.759-1,2.384-1.409,3.143.52-.433,1.039-.868,1.583-1.279.911-1.756,2.211-3.99,4.183-4.553a20.516,20.516,0,0,1-2.233,2.971c.152-.022.152-.022,2.081-1.3,1.3-1.995,2.3-3.252,4.616-4.142a8.878,8.878,0,0,1-2.992,3.1l.065.065,2.535-1.3c1.126-1.344,3.077-3.426,5.027-3.426a15.992,15.992,0,0,1-3.12,2.536c.824-.283,1.648-.542,2.47-.8,1.583-1.323,3.359-2.819,5.636-2.819a15.687,15.687,0,0,1-3.4,2.038,12.441,12.441,0,0,0,2.32-.433A10.59,10.59,0,0,1,57,20.07l.087.087A16.745,16.745,0,0,1,53.8,21.934l1.018-.065c1.3-.5,5.027-1.518,6.458-.433,2.579-.716,4.248.174,6.827.65-1.083-.607-1.842-1.127-2.666-1.69v-.152c1.322.346,3.142.824,4.161,2.19a12.34,12.34,0,0,0,2.535.585,10.572,10.572,0,0,1-3.663-2.212,7.644,7.644,0,0,1,5.418,2.906c2.99,1.149,2.99,1.149,3.207,1.149-1.126-.694-2.948-1.777-3.424-2.732,1.6,0,3.359,1.995,4.529,3.274.781.411,1.561.824,2.361,1.236A10.729,10.729,0,0,1,78.066,23.8c2.709.324,3.727,4.444,6.545,5.443C83.83,28.46,82.4,26.9,82.4,26.27c2.861.846,3.62,5.2,6.632,6.7a12.718,12.718,0,0,1-2.492-3.924c1.409,0,2.992,3.535,3.359,4.966,1.518,1.734,1.518,1.734,1.648,1.8a19.8,19.8,0,0,1-1.474-3.557c.672,0,1.863,2.384,2.189,3.1a10.4,10.4,0,0,1,.455,1.973c.694,1.018,1.409,2.038,2.124,3.078h.13A15.751,15.751,0,0,1,93.323,36c1.561,1.192,2.081,3.6,2.255,5.638.433.781.867,1.583,1.3,2.384a21.9,21.9,0,0,1-.737-4.185h.13a10.714,10.714,0,0,1,1.409,5.984c.433,1.127.867,2.256,1.3,3.4-.239-1.734-.433-3.4-.541-4.923,1.344.89,1.213,4.879.976,6.439.261,1,.52,2.017.8,3.035a37.026,37.026,0,0,1,.261-4.705h.13a9.491,9.491,0,0,1-.174,6.093c.13.955.261,1.93.389,2.906a21.323,21.323,0,0,1,.933-4.25,8.542,8.542,0,0,1-.8,5.984v3.557a27.606,27.606,0,0,1,1.539-5.312h.152a10.664,10.664,0,0,1-1.755,6.31c-.109,1.04-.217,2.1-.326,3.165a23.833,23.833,0,0,1,1.776-3.837h.152c-.043.455-.087.911-.109,1.366a15.038,15.038,0,0,1-2.081,4.076c-.174.824-.346,1.669-.52,2.515.455-.89,1.431-2.906,2.276-3.187-.152,1.843-1.6,3.578-2.839,4.944-.737,2.147-.737,2.147-.715,2.321.65-.977,1.583-2.515,2.622-2.928a9.636,9.636,0,0,1-1.539,2.993c-1.213,1.214-2.622,2.19-2.97,4.185.607-.781,1.863-2.321,2.839-2.558-.824,2.06-2.233,3.165-3.944,4.466-1.235,1.973-1.235,1.973-1.235,2.125a8.284,8.284,0,0,1,2.839-2.06c-.846,1.886-2.687,3.013-4.355,4.055-1.431,1.821-1.842,2.212-1.95,2.428a15.861,15.861,0,0,1,3.727-2.406c-.78,1.864-3.4,3.1-5.092,3.816-.672.65-1.344,1.323-2.016,1.995a23.776,23.776,0,0,1,4.227-2.06c-1.126,1.864-3.835,2.776-5.7,3.209-.476.368-.954.737-1.409,1.105v.152c.954-.455,2.383-1.257,3.6-1.149-1.842,1.562-3.662,1.995-5.851,2.536-.737.433-1.452.868-2.168,1.3a15.452,15.452,0,0,0,2.361-.542c.541-.065,1.083-.13,1.648-.174v.152a16.182,16.182,0,0,1-6.068,1.605l-1.365.65c.087,0,3.49-.542,3.49-.109-1.907,1.04-3.749.977-5.721.977-.781.261-1.539.542-2.3.824,1.148.174,2.34-.109,3.749.174v.152a11.2,11.2,0,0,1-5.786.239l-3.12.585a26.98,26.98,0,0,1,4.333.542v.152a12.522,12.522,0,0,1-5.981-.411c-.8.043-1.6.087-2.383.152.737.152,3.033.433,3.77,1.17a7.066,7.066,0,0,1-1.543.183" transform="translate(-16.238 -17.244)" fill="#fdb928" fill-rule="evenodd"/>
    <path id="Path_35483" data-name="Path 35483" d="M67.67,108.648c-1.387-1.062-3.879-2.384-5.549-2.212a15.608,15.608,0,0,0,4.529,2.082,28.563,28.563,0,0,1-3.033-.261c-1.126-.89-3.944-2.689-5.179-2.536.607.911,2.535,1.67,3.835,2.234a19.512,19.512,0,0,1-3.381-.672c-1.668-1.583-2.99-2.8-5.071-3.317a14.985,14.985,0,0,0,3.879,2.884,12.215,12.215,0,0,1-3.316-1.105,10.7,10.7,0,0,0-4.314-3.6.17.17,0,0,0-.087.087,19.817,19.817,0,0,0,2.97,2.863,8.174,8.174,0,0,1-2.233-1c-.694-1.105-2.731-3.881-3.683-3.881a35.294,35.294,0,0,0,2.233,3.035,15.129,15.129,0,0,1-2.448-1.518,10.518,10.518,0,0,0-3.446-4.64c0,1,1.561,2.991,2.427,3.9a13.929,13.929,0,0,1-2.753-2.125c-.628-1.843-1.67-3.968-3.077-4.966a12.044,12.044,0,0,0,2.211,4.142c-.824-.716-.824-.716-2.448-2.341A22.35,22.35,0,0,0,37.917,91c-.715-.846-.715-.846-.781-.8a11.6,11.6,0,0,0,1.885,4.6c-.217-.152-.217-.152-2.383-2.906-.239-1.93-.65-4.25-1.776-5.573a13.155,13.155,0,0,0,.541,3.165c.65,1.323.65,1.323.65,1.518a32.9,32.9,0,0,1-1.95-3.187,14.584,14.584,0,0,0-1.018-5.421h-.13a14.53,14.53,0,0,0,.283,3.252c.433,1.062.433,1.062.411,1.192q-.78-1.625-1.561-3.252a19.058,19.058,0,0,0,.065-4.294c-.52-1.973-.52-1.973-.607-2.06-.672,1.627.239,3.794.239,5.53A18.72,18.72,0,0,1,30.7,79.265a13.186,13.186,0,0,0,.109-5.81,13.484,13.484,0,0,0-.389,4.9,30.665,30.665,0,0,1-.737-3.622,14.59,14.59,0,0,0,.846-5.617c-.759.759-.889,3.013-1.018,4.12a26.613,26.613,0,0,1-.239-3.383,13.345,13.345,0,0,0,1.365-5.573l-.087-.087a17.913,17.913,0,0,0-1.235,3.448H29.23A20.5,20.5,0,0,1,29.4,64.91a14.6,14.6,0,0,0,2.124-5.4.54.54,0,0,0-.174-.022,12.646,12.646,0,0,0-1.6,3.252h-.087c.13-.8.261-1.583.411-2.363a12.782,12.782,0,0,0,2.6-5.051h-.2a16.208,16.208,0,0,0-1.82,2.884c0-3.013,3.337-4.357,4.009-7.089a13.521,13.521,0,0,0-2.731,3.165.164.164,0,0,0-.087-.022,14.918,14.918,0,0,1,1.213-2.645,10.534,10.534,0,0,0,3.6-4.077,16.071,16.071,0,0,0-2.97,2.71,18.208,18.208,0,0,1,1.192-2.277,9.976,9.976,0,0,0,4.42-3.924c-.824,0-3.337,2.536-3.468,2.493a28.531,28.531,0,0,1,1.82-2.58c1.474-.977,4.031-1.366,4.985-3.187a10.891,10.891,0,0,0-3.988,2.038c.628-.824,1.387-1.627,2.037-2.321A10.94,10.94,0,0,0,45.979,38a7.49,7.49,0,0,0-2.774.824c-1.474.8-1.474.8-1.6.781,1.67-1.54,1.67-1.54,2.427-2.147,1.929-.261,4.4-.781,5.851-2.234a11.1,11.1,0,0,0-3.642.933,15.48,15.48,0,0,1-1.6.846c1.863-1.366,1.863-1.366,3.424-2.363a12.33,12.33,0,0,0,6.22-1.518,8.134,8.134,0,0,0-4.79.868h-.239a32.872,32.872,0,0,1,2.883-1.605c2.276.087,3.922.326,6.112-.672-.694-.694-4.053,0-4.746.109,1.387-.585,1.387-.585,3.185-1.236,1.583.239,3.835.868,5.549.109a12.687,12.687,0,0,0-4.746-.324c1.083-.3,2.189-.585,3.294-.868a20.722,20.722,0,0,0,5.136.89v-.109a13.359,13.359,0,0,0-3.749-1c.628-.13,1.279-.261,1.929-.368a11.885,11.885,0,0,0,5.071-.2c.541-.217.541-.217.759-.217a8.933,8.933,0,0,0,5.31.563,17.956,17.956,0,0,1,2.255.368c-1.126.065-3.185.13-3.879.933,1.583.39,3.142-.52,4.746-.716.933.261,1.863.52,2.818.8-1.083,0-3.294-.2-4.1.239.889.89,3.922.346,5.244.109q1.787.715,3.577,1.431c-2.016-.368-3.272-.737-5.005-.346v.174a11.15,11.15,0,0,0,5.764.694c.174-.261,2.233.977,2.709,1.236-.022.022-.022.043-.022.087-.607-.2-4.27-1.236-4.14-.52a15.111,15.111,0,0,0,5.96,1.518c.824.585,1.648,1.17,2.492,1.777a15.532,15.532,0,0,1-2.383-.846c-.607-.109-1.192-.217-1.776-.3,0,.737,3.12,1.8,3.879,2.038l1.626.2c.737.672,1.5,1.344,2.255,2.017a.322.322,0,0,0-.152.022,9.584,9.584,0,0,0-4.075-1.627c1.039,1.431,3.662,2.406,5.44,2.8,1.733,2.038,1.733,2.038,1.711,2.1-1-.629-2.731-2.017-3.749-1.864.824,1.453,3.033,2.406,4.768,3.013,1.257,1.777,1.257,1.777,1.972,2.928-.065.022-.065.022-1.626-1.54a12.683,12.683,0,0,0-1.994-1.04l-.065.065a9.979,9.979,0,0,0,4.464,3.772,20.052,20.052,0,0,1,1.452,2.8c-.065.022-.065.022-1.561-1.627a10.684,10.684,0,0,0-1.755-1.3,13.687,13.687,0,0,0,4.009,4.466A11,11,0,0,1,107.2,56a15.856,15.856,0,0,0-2.992-3.729c0,1.236,1.626,3.23,2.6,4.336.846.759.846.759.976.977a10.673,10.673,0,0,1,.585,2.689c-.541-1.105-1.648-3.209-2.32-3.535a10.527,10.527,0,0,0,2.753,5.464,17.517,17.517,0,0,1,.282,2.493,19.579,19.579,0,0,0-1.95-3.75c-.239,1.69,1.039,3.968,2.1,5.53a24.353,24.353,0,0,1,.043,3.1c-.217-1.04-.759-3.729-1.344-4.229a10.252,10.252,0,0,0,1.3,5.617c-.109,1.17-.217,2.363-.326,3.557h-.152a9.068,9.068,0,0,0-.8-4.531,11.571,11.571,0,0,0,.694,5.81,25.719,25.719,0,0,1-.65,3.056,23.853,23.853,0,0,0-.368-4.207c-.52-.087-.433,3.1-.433,3.535.109.716.239,1.453.368,2.19a24.113,24.113,0,0,1-.933,2.6,13.648,13.648,0,0,0,.13-4.272h-.2a12.582,12.582,0,0,0-.52,5.832,26.672,26.672,0,0,1-1.3,2.623,25.8,25.8,0,0,0,.433-3.9.424.424,0,0,0-.152-.022c-.3.781-.585,1.562-.867,2.341a24.948,24.948,0,0,0-.368,3.361l-1.69,2.6a.672.672,0,0,1-.043-.174,14.323,14.323,0,0,0,.976-4.25h-.109a15.431,15.431,0,0,0-1.8,5.789,16.771,16.771,0,0,1-2.47,2.819c.607-.955,2.037-3.535,1.885-4.553a13.337,13.337,0,0,0-2.731,5.551c-.715.65-1.431,1.3-2.146,1.973a.368.368,0,0,1-.043-.109c.476-.846,1.994-2.991,1.885-3.946a11.648,11.648,0,0,0-2.948,5.051c-.78.542-1.539,1.105-2.3,1.669,0-.13,0-.13.389-.52.389-.52,1.863-2.406,1.711-3.035a15.909,15.909,0,0,0-3.533,4.51,16.99,16.99,0,0,1-2.6,1.518,21.561,21.561,0,0,1,1.561-1.627,10.3,10.3,0,0,0,1.083-1.605c-.759.109-2.233,1.712-2.861,2.277-.672.824-1.1,1.54-1.365,1.8a17.4,17.4,0,0,1-2.514,1.018c.563-.39,3.229-2.321,3.229-3.056a11.814,11.814,0,0,0-4.377,3.557,18.754,18.754,0,0,1-2.6.781,16.31,16.31,0,0,0,3.294-2.667c-1.561,0-4.031,2.256-4.964,3.187a16.558,16.558,0,0,1-3.251.585,12.1,12.1,0,0,0,3.705-2.169,9.385,9.385,0,0,0-5.31,2.406,14.626,14.626,0,0,1-3.164.283c.607-.477,4.031-1,4.355-1.973a12.836,12.836,0,0,0-5.223,1.908c-.732.025-1.447.069-2.162.112" transform="translate(-24.824 -24.154)" fill="#fff" fill-rule="evenodd"/>
    <path id="Path_35484" data-name="Path 35484" d="M287.291,77.3h0l-.049-1.94-.148-1.915-.243-1.888-.337-1.859-.427-1.826-.514-1.794-.6-1.754-.685-1.716-.764-1.674-.844-1.631-.92-1.583-.994-1.533L279.7,54.708l-1.134-1.428-1.2-1.373L276.1,50.594,274.78,49.34l-1.385-1.19-1.441-1.123-1.494-1.054-1.548-.986-1.6-.913-1.643-.837-1.69-.757-1.729-.679-1.769-.594-1.807-.513-1.842-.422-1.872-.333-1.905-.241-1.932-.147L249.17,39.5v.453l1.936.047,1.909.145,1.882.239,1.851.328,1.82.42,1.786.5,1.749.589,1.709.67,1.668.75,1.623.826,1.579.9,1.528.973,1.476,1.044L273.11,48.5l1.367,1.176,1.311,1.237,1.248,1.3,1.186,1.357,1.119,1.411,1.052,1.464.982,1.516.909,1.564.833,1.611.755,1.654.677,1.7.592,1.734.511,1.768.422,1.8.331,1.837.241,1.864.145,1.893.049,1.917" transform="translate(-204.935 -33.153)" fill="#004fa3"/>
    <path id="Path_35485" data-name="Path 35485" d="M249.17,285.966h0l1.956-.049,1.932-.147,1.905-.241,1.872-.335,1.842-.422,1.807-.511,1.769-.6,1.729-.678,1.69-.759,1.643-.837,1.6-.911,1.548-.986,1.494-1.056,1.441-1.123,1.385-1.189,1.324-1.254,1.264-1.314,1.2-1.373,1.134-1.429,1.063-1.482.994-1.535.92-1.583.844-1.629.764-1.674.685-1.716.6-1.756.514-1.792.427-1.826.337-1.859.243-1.888.148-1.917.049-1.94h-.451l-.049,1.919-.145,1.891-.241,1.866-.331,1.835-.422,1.8-.511,1.77-.592,1.734-.677,1.7-.755,1.652-.833,1.611-.909,1.564-.982,1.516-1.052,1.466-1.119,1.411-1.186,1.357-1.248,1.3-1.311,1.239-1.367,1.176-1.425,1.111-1.476,1.044-1.528.973-1.579.9-1.623.828-1.668.748-1.709.672-1.749.589-1.786.5-1.82.418-1.851.33-1.882.239-1.909.143-1.936.049" transform="translate(-204.935 -204.009)" fill="#004fa3"/>
    <path id="Path_35486" data-name="Path 35486" d="M38.66,248.16h0l.051,1.94.148,1.917.243,1.888.337,1.859.426,1.826.516,1.792.6,1.756.683,1.716.766,1.674.844,1.629.92,1.583.992,1.535,1.065,1.482,1.134,1.429,1.2,1.373,1.264,1.314,1.324,1.254,1.385,1.189L54,278.438l1.5,1.056,1.547.986,1.6.911,1.642.837,1.688.759,1.729.678,1.771.6,1.805.511,1.844.422,1.872.335,1.905.241,1.93.147,1.956.049v-.453l-1.934-.049-1.909-.143-1.882-.239-1.853-.33-1.818-.418-1.786-.5-1.749-.589-1.709-.672-1.668-.748-1.624-.828-1.577-.9-1.528-.973-1.478-1.044-1.423-1.111-1.367-1.176-1.311-1.239-1.248-1.3L47.731,271.9l-1.119-1.411-1.052-1.466-.982-1.516-.909-1.564-.833-1.611-.757-1.652-.675-1.7-.594-1.734-.509-1.77-.422-1.8-.331-1.835-.241-1.866-.147-1.891-.047-1.919" transform="translate(-32.546 -204.009)" fill="#004fa3"/>
    <path id="Path_35487" data-name="Path 35487" d="M76.781,39.5h0l-1.956.049L72.9,39.7l-1.905.241-1.872.333-1.844.422-1.805.513L63.7,41.8l-1.729.679-1.688.757-1.642.837-1.6.913-1.547.986L54,47.026l-1.44,1.123-1.385,1.19L49.85,50.594l-1.264,1.314-1.2,1.373-1.134,1.428-1.065,1.484-.992,1.533-.92,1.583-.844,1.631-.766,1.674-.683,1.716-.6,1.754-.516,1.794L39.439,69.7,39.1,71.561l-.243,1.888-.148,1.915L38.66,77.3h.453l.047-1.917.147-1.893.241-1.864.331-1.837.422-1.8.509-1.768.594-1.734.675-1.7.757-1.654.833-1.611.909-1.564.982-1.516,1.052-1.464,1.119-1.411,1.186-1.357,1.248-1.3,1.311-1.237L52.843,48.5l1.423-1.111,1.478-1.044,1.528-.973,1.577-.9,1.624-.826,1.668-.75,1.709-.67,1.749-.589,1.786-.5,1.818-.42,1.853-.328,1.882-.239L74.847,40l1.934-.047" transform="translate(-32.546 -33.153)" fill="#004fa3"/>
    <path id="Path_35488" data-name="Path 35488" d="M108.153,162.257c-.551-1.739-1.34-2.64-2.948-2.968q-9.032.008-18.064.06a7.435,7.435,0,0,1-6.648-6.091c-.116-2.368-.116-2.368-.185-8.327.071-.663.071-.663-.136-29.2-.455-2.212-1.335-3.388-3.314-4.049a1.06,1.06,0,0,1-.049-.255c1.619-2.065,3.283-4.046,4.841-6.089a.8.8,0,0,1,.234-.091q25.909-.158,51.839-.275c.2.188.2.188.3.185-.022.022-.02.065-.018.107,1.492,1.826,3.006,3.651,4.52,5.5.091.234.091.234.2.315-1.559.911-2.586,1.852-2.778,3.779.158,26.36.158,26.36.132,37.747-.712,2.6-1.59,4.35-4.143,5.754l-2.162.688c-6.423.143-12.767.134-19.062.274-1.757.679-1.958,1.239-2.561,2.941" transform="translate(-63.788 -86.762)" fill="#fdb928" fill-rule="evenodd"/>
    <path id="Path_35489" data-name="Path 35489" d="M187.828,347.353c-.154-.21-.286-.4-.418-.589.362-.007.636-.248.65.455a2.025,2.025,0,0,0-.232.134" transform="translate(-154.359 -284.71)" fill="#fff" fill-rule="evenodd"/>
    <path id="Path_35490" data-name="Path 35490" d="M212.8,327.97c-2.273-2.142-5.358-1.651-7.943-1.68.014-5.127-.036-10.133,0-15.261,5.382.009,10.779-.029,16.18,0V326.3c-1.751,0-3.743.082-5.492.1-.264.246-.771-.371-2.745,1.574" transform="translate(-168.638 -255.479)" fill="#004fa3" fill-rule="evenodd"/>
    <path id="Path_35491" data-name="Path 35491" d="M311.764,326.348H301.98V311.08h16.8c0,3.3,0,6.883.013,10.28a6.828,6.828,0,0,1-2.316,3.685c0,.043,0,.085,0,.15a8.9,8.9,0,0,1-4.716,1.152" transform="translate(-248.182 -255.529)" fill="#004fa3" fill-rule="evenodd"/>
    <path id="Path_35492" data-name="Path 35492" d="M246.054,383.335a24.231,24.231,0,0,1-.384-2.875l1.047.042a12.9,12.9,0,0,1-.366,2.721,1.137,1.137,0,0,0-.3.112" transform="translate(-202.069 -312.339)" fill="#fdb928" fill-rule="evenodd"/>
    <path id="Path_35493" data-name="Path 35493" d="M111.513,326.326c-3.935-.254-5.7-2.518-5.954-6.165.016-3.12-.016-5.953,0-9.052,5.552.005,10.818-.076,16.371-.051-.031,14.014.076,13.878,0,15.268" transform="translate(-87.327 -255.507)" fill="#004fa3" fill-rule="evenodd"/>
    <path id="Path_35494" data-name="Path 35494" d="M223.907,359.2c-1.771-.9-3.651.016-5.116-.571-.007-1.281.007-2.542.022-3.8l.427-.009c0,1.132.007,2.265.033,3.4,2.5.072,2.5.072,3.823.022.083-.13.082-.194.38-.2.183.509.378.7,1.19.679.31-.477.31-.477.348-.67a.924.924,0,0,1,.235.016,1.935,1.935,0,0,1,.132.21,21.969,21.969,0,0,0,3.352-.053,19.32,19.32,0,0,0,.116-3.4c.321.036.321.036.388.12-.014,1.283-.007,2.564,0,3.866-1.387.009-2.776.018-4.142.049a1.948,1.948,0,0,1-1.188.348" transform="translate(-180.056 -291.344)" fill="#fdb928" fill-rule="evenodd"/>
    <path id="Path_35495" data-name="Path 35495" d="M318.015,335.122a4.583,4.583,0,0,1-2.066-.7c-.708-.176-1.416-.332-2.124-.487-1.641-1.8-1.259-3.817-.038-5.575a16.623,16.623,0,0,0,2.378-.587c.344-.884,5.145-1.055,5.969.509a2.4,2.4,0,0,1,1.547.435c.911,1.56,1.132,4.781-1.338,5.136-1.335,1.332-2.705,1.192-4.326,1.27" transform="translate(-256.984 -268.65)" fill="#fdb928" fill-rule="evenodd"/>
    <path id="Path_35496" data-name="Path 35496" d="M227.731,351.044a1.843,1.843,0,0,0-1.639-.712c-.552.141-2.608.848-3.022.451.011-1.431.022-2.863.054-4.3l1.367.034c1.148-.239,1.949-.727,3.164.143a3.758,3.758,0,0,1,3.048-.217c.426-.031.853-.04,1.28-.049-.031,1.518-.04,3.035-.049,4.551-1.411-.076-2.264-1-3.45-.522-.5.4-.583.569-.753.616" transform="translate(-183.562 -284.26)" fill="#fdb928" fill-rule="evenodd"/>
    <path id="Path_35497" data-name="Path 35497" d="M125.385,340.969c-2.8-.045-5.6-.067-8.394-.091-.005-1.2-.011-2.392-.014-3.567-.384-.013-.77,0-1.154,0,0-.063,0-.129,0-.17a13.043,13.043,0,0,1,2.466-2.426c0-.063,0-.107,0-.15.313-.284.628-.569.963-.833,2.349-.009,4.7,0,7.046.014,2.852,3.462,2.852,3.462,2.878,3.589-.512.011-1.023.043-1.536.076-.016,1.154-.034,2.33-.029,3.5-.748.018-1.494.034-2.22.051" transform="translate(-95.733 -274.077)" fill="#fdb928" fill-rule="evenodd"/>
    <path id="Path_35498" data-name="Path 35498" d="M336.115,366.233c-.7-.027-2.436-.031-2.575-.583a31.243,31.243,0,0,0,3.634.239,1.771,1.771,0,0,1,.174.1c-.23.241-1.083.239-1.233.241" transform="translate(-274.027 -300.212)" fill="#004fa3" fill-rule="evenodd"/>
    <path id="Path_35499" data-name="Path 35499" d="M253.259,352.6a7.677,7.677,0,0,0-2.15-.636,2.808,2.808,0,0,1-1.02.236,14.1,14.1,0,0,1,.083-2.971c1.244-.69,1.874-.212,3.435-.076a23.086,23.086,0,0,1,.013,3.439l-.362.009" transform="translate(-205.688 -286.464)" fill="#004fa3" fill-rule="evenodd"/>
    <path id="Path_35500" data-name="Path 35500" d="M225.543,352.774a1.2,1.2,0,0,1-.174-.125c0-1.111-.005-2.2.013-3.29,1.11-.025,2.843-.853,3.95-.067.043.982.043.982,0,2.841-.471-.011-.918-.022-1.367-.034a17.444,17.444,0,0,1-2.419.676" transform="translate(-185.442 -286.541)" fill="#004fa3" fill-rule="evenodd"/>
    <path id="Path_35501" data-name="Path 35501" d="M154.834,343.1c-1.049-.062-2.073-.1-3.1-.145-.022-.982-.043-1.964-.043-2.926,1.186-.411,2.792-3.075,3.732-3.095.637.862,1.3,1.723,1.958,2.605-.3.027-.6.056-.873.083-.04,1.112-.078,2.245-.118,3.377-.532.033-1.043.067-1.556.1" transform="translate(-125.108 -276.696)" fill="#004fa3" fill-rule="evenodd"/>
    <path id="Path_35502" data-name="Path 35502" d="M352.039,338.527c-2.707-1.712-.866-7.287.552-5.93l.005.255c-1.543.7-1.5,2.768-.971,4.337.219.23.436.46.677.712.474.225.474.225.542.352a1.316,1.316,0,0,1-.806.274" transform="translate(-288.039 -272.976)" fill="#004fa3" fill-rule="evenodd"/>
    <path id="Path_35503" data-name="Path 35503" d="M126.889,356.752l-2.244-.078a24.247,24.247,0,0,1,.018-3.035c1.452-.011,2.9,0,4.357.011,0,1,0,2.029,0,3.055-.726.014-1.431.031-2.135.047" transform="translate(-102.928 -290.374)" fill="#004fa3" fill-rule="evenodd"/>
    <path id="Path_35504" data-name="Path 35504" d="M317.421,340.86c-.516-.159-.925-1.324-1.018-1.6-.089-1.131-.063-2.883.971-3.419a14.891,14.891,0,0,1-.5,1.549,4.479,4.479,0,0,0,.652,3.383.229.229,0,0,0-.105.089" transform="translate(-259.966 -275.803)" fill="#004fa3" fill-rule="evenodd"/>
    <path id="Path_35505" data-name="Path 35505" d="M323.411,340.259a4.582,4.582,0,0,1,.014-5.084.3.3,0,0,1,.148-.045,6.281,6.281,0,0,0-.036,5.127l-.127,0" transform="translate(-265.102 -275.222)" fill="#004fa3" fill-rule="evenodd"/>
    <path id="Path_35506" data-name="Path 35506" d="M332.079,359.852a16.482,16.482,0,0,1-2.418-.225c-.067-.168-.114-.339-.161-.487a24.915,24.915,0,0,1,3.423.245,2.815,2.815,0,0,0,.158.38c-.34.029-.681.058-1,.087" transform="translate(-270.718 -294.882)" fill="#004fa3" fill-rule="evenodd"/>
    <path id="Path_35507" data-name="Path 35507" d="M360.007,341.369c-1.577-.841-1.431-2.9-.581-4.089,2.023-1.219,2.162,2.152,1.574,3.533a2.312,2.312,0,0,1-.992.556" transform="translate(-294.711 -276.769)" fill="#004fa3" fill-rule="evenodd"/>
    <path id="Path_35508" data-name="Path 35508" d="M329.279,351.987c-.536-.074-1.049-.127-1.563-.179-.027-.234-.031-.448-.036-.661,1.132,0,2.285-.007,3.439.009.005.236.011.469.016.727l-1.856.105" transform="translate(-269.228 -288.333)" fill="#004fa3" fill-rule="evenodd"/>
    <path id="Path_35509" data-name="Path 35509" d="M329.93,343.793c-.791-.047-1.561-.073-2.329-.1-.069-.19-.069-.19.009-.534.531-.14,2.937-.428,3.435-.12.025.17.025.17-.114.665-.34.029-.681.058-1,.087" transform="translate(-269.122 -281.587)" fill="#004fa3" fill-rule="evenodd"/>
    <path id="Path_35510" data-name="Path 35510" d="M181.665,338.971c-.306-.292.011-.471,0-.79a1.233,1.233,0,0,0-.862-.322c.873-1.109-.027-1.259-.942-1.025,0-.085,0-.15-.005-.214.377-.328.7-.272,1.277-.243a1.314,1.314,0,0,1,.366,1.123c.308.293.771,1.009.163,1.471" transform="translate(-148.177 -276.224)" fill="#fdb928" fill-rule="evenodd"/>
    <path id="Path_35511" data-name="Path 35511" d="M126.229,338.772c-1.559-.051-3.12-.1-4.679-.13.333-.371,1.351-1.7,1.858-1.879,0-.063,0-.107,0-.149.252-.219.5-.417.755-.614,1.9-.022,3.8-.02,5.7-.02a24.067,24.067,0,0,1-2.78,2.732c-.3.005-.574.033-.851.06" transform="translate(-100.426 -275.918)" fill="#004fa3" fill-rule="evenodd"/>
    <path id="Path_35512" data-name="Path 35512" d="M244.7,342.474c-.449-.033-.876-.065-1.3-.1-.134-.232-.244-.444-.357-.654.7.005,1.409.011,2.137.038-.062.15-.284.647-.476.716" transform="translate(-199.915 -280.618)" fill="#fdb928" fill-rule="evenodd"/>
    <path id="Path_35513" data-name="Path 35513" d="M119.493,321.934c-.353-.506.042-1.027.27-1.31a1.977,1.977,0,0,1,.417-1.462c-.5-1.4-.127-1.834,1.166-2.312,1.239-.027,1.242.187,1.612,1.46.692.37.775.261.882,1.241l-.277.005c-.129-.98-.552-.8-1.15-.83.857-2.776-3.951-1.024-1.244.69,0,.043,0,.085,0,.15-.614.207-1.452-.033-.875,1a.472.472,0,0,1,.328.355c-.833.018-1.045.045-.92.9a.736.736,0,0,0-.212.112" transform="translate(-98.626 -260.252)" fill="#fdb928" fill-rule="evenodd"/>
    <path id="Path_35514" data-name="Path 35514" d="M329.42,336.16c.3-1.011,2.441-.674,3.444-.674a.586.586,0,0,1-.033.493,34.131,34.131,0,0,0-3.412.181" transform="translate(-270.653 -275.469)" fill="#004fa3" fill-rule="evenodd"/>
    <path id="Path_35515" data-name="Path 35515" d="M243.252,336.472c-.493-.033-.962-.063-1.432-.1.6-1,1.054-.643,2.358-.587.112.212.223.422.357.654q-.644.016-1.282.029" transform="translate(-198.916 -275.674)" fill="#fdb928" fill-rule="evenodd"/>
    <path id="Path_35516" data-name="Path 35516" d="M334.46,329.986c.217-.752,2.676-.594,3.533-.506.014.62-2.213.37-2.468.375-.362.029-.724.08-1.065.13" transform="translate(-274.78 -270.532)" fill="#004fa3" fill-rule="evenodd"/>
    <path id="Path_35517" data-name="Path 35517" d="M240.753,317.615c-.956-.727-.621-1.973-.469-2.874l.129,0,.527.694a3.465,3.465,0,0,0,.393-1.5.7.7,0,0,1,.692.411l.382-.072c.176.21.373.419.569.629l.277-.005c.453,1.121.331,1.468-.283,2.634-.744.014-1.49.053-2.217.091" transform="translate(-197.509 -257.861)" fill="#fdb928" fill-rule="evenodd"/>
    <path id="Path_35518" data-name="Path 35518" d="M243.616,319.544l-1.027-.105a4.565,4.565,0,0,1-.076-1.515l.149,0c0,.085-.047.727.36.846a11.948,11.948,0,0,0,.6-1.937c.433.268.474,1.207.532,1.868a2.721,2.721,0,0,0,.328-1.589c.362-.007.3,1.125.31,1.468a.766.766,0,0,0,.33-.52.41.41,0,0,1,.17-.047c-.1.429-.194.859-.27,1.31a3.127,3.127,0,0,1-1.4.225" transform="translate(-199.463 -260.237)" fill="#004fa3" fill-rule="evenodd"/>
    <path id="Path_35519" data-name="Path 35519" d="M151.052,324.746a2.052,2.052,0,0,0-.3-.078c-.007-.362-.016-.727-.024-1.067l-1.623-.027c-.034.364-.047.748-.06,1.134l-.449-.054a4.789,4.789,0,0,1,.053-1.518c.853-.018,1.708-.038,2.582-.036-.009.513-.02,1.047-.029,1.582a.879.879,0,0,0-.15.065" transform="translate(-122.548 -265.371)" fill="#fdb928" fill-rule="evenodd"/>
    <path id="Path_35520" data-name="Path 35520" d="M301.98,133.739V116.88c5.339.009,10.51,0,15.849.014.581.179,2.492,2.991,3.2,4.173-1.373.692-1.918,2.094-2.312,3.533-.016,3.1-.033,6.031-.027,9.151-5.6.123-11.112.013-16.711-.013" transform="translate(-248.182 -96.514)" fill="#004fa3" fill-rule="evenodd"/>
    <path id="Path_35521" data-name="Path 35521" d="M204.862,133.685c0-5.618-.025-11.26,0-16.859,5.36.009,10.82-.031,16.18,0-.025,5.618,0,11.219,0,16.859" transform="translate(-168.643 -96.46)" fill="#004fa3" fill-rule="evenodd"/>
    <path id="Path_35522" data-name="Path 35522" d="M94.02,133.649c-.074-3.31-.062-3.379-.045-9.318a5.371,5.371,0,0,0-2.6-3.509c.123-.259,2.059-2.288,3.327-3.919l.148,0c0-.043,0-.085,0-.129,5.275.011,10.172-.013,15.467.02-.08,7.97-.027,7.95,0,16.859" transform="translate(-75.719 -96.424)" fill="#004fa3" fill-rule="evenodd"/>
    <path id="Path_35523" data-name="Path 35523" d="M216.308,137.807c-.679-.8-.829-1.776-1.309-2.236-.235-.016-.449-.033-.663-.027-1.242.819-2.537,2.107-3.988,2.14-.024-.085-.045-.149-.069-.212,3.533-2.428,3.533-2.428,4.5-3.027.746-.016.659-.1,1.063.725a18.175,18.175,0,0,1,.614,2.636c-.065,0-.109,0-.15,0" transform="translate(-173.088 -110.888)" fill="#fdb928" fill-rule="evenodd"/>
    <path id="Path_35524" data-name="Path 35524" d="M120.355,166.97a4.211,4.211,0,0,1-1.512-.779c-.08-.7-.043-.96.614-1.189.033,1.451,1.867,1.39,3.028.788a.422.422,0,0,1,.081-.172c-.065-.083-.11-.169-.154-.232-.6.953-1.95.663-2.62.272-.024-1.067.223-.582.487-1.143-.214.005-.214.005-1.315.413a.481.481,0,0,1-.109-.062c-.018-.812-.212-2.816.139-3.314,2.644-1.127,5.261-.609,8.2-.1-.049-2.241-.82-2.332,1.389-1.89.661-.014,2.408-.2,1.735,1.221.065.02.129.04.215.06.02.919.062,1.835.1,2.754-1.242,1.737-6.068.775-7.437.636a22.41,22.41,0,0,0-2.812.255c.469-.011,1.885.257,2.408-.181a3.576,3.576,0,0,1,.451.14c.63,2.334-1.1,2.393-2.89,2.518" transform="translate(-98.162 -131.295)" fill="#fdb928" fill-rule="evenodd"/>
    <path id="Path_35525" data-name="Path 35525" d="M156.927,135.662a.883.883,0,0,1-.15-.062c0-1.132-.054-.554.36-1.1a1.755,1.755,0,0,1-.215-.123c.266-.477.225-.475.712-.636a1.088,1.088,0,0,0-1.025-.042,11.142,11.142,0,0,0-2.074-.125c-.005-.236.011-.471.027-.7a9.793,9.793,0,0,1,1.961-.172,3.263,3.263,0,0,0,.1.446c.04-.15.08-.279.12-.408a.506.506,0,0,1,.407.054,1.928,1.928,0,0,1-.123-.723,5.063,5.063,0,0,1,.594-.185,1.567,1.567,0,0,1-.813-.067c-.007-.342.005-.683.02-1,.982-.022,1.965-.022,2.946-.024.007.321.015.641.022.982-.487.161-.634,1.274-.748,1.875a2.218,2.218,0,0,1,.7.817q-.323.024-.63.054a19.577,19.577,0,0,0-1.981-.013c-.029.007-.013.033-.025.042s1.82.022,1.968.024c.248,0,.5.011.755.018l-.043.962c-.962.025-1.921.069-2.861.111" transform="translate(-127.437 -107.904)" fill="#fdb928" fill-rule="evenodd"/>
    <path id="Path_35526" data-name="Path 35526" d="M119.267,141.1a1.669,1.669,0,0,1-.5-.351c0,.085,0,.17.005.277-1.409.031-1.4-1.656-.033-1.495,0,.15,0,.15.067.149a.409.409,0,0,1,.038-.172,9.605,9.605,0,0,1,3.548.156c.007.321.036.661.065,1a9.839,9.839,0,0,1-3.191.435" transform="translate(-97.284 -114.944)" fill="#fdb928" fill-rule="evenodd"/>
    <path id="Path_35527" data-name="Path 35527" d="M144.889,142.218a2.752,2.752,0,0,1-.129-.98c.23-.241,1.067-.067,1.537-.013.121.66.121.66.081.766-.511.076-1,.152-1.49.226" transform="translate(-119.433 -116.357)" fill="#fdb928" fill-rule="evenodd"/>
    <path id="Path_35528" data-name="Path 35528" d="M128.079,190.342a1.771,1.771,0,0,0-.174-.1c0-.085,0-.15-.005-.214a2.582,2.582,0,0,1,1.257-.156c0,.107.005.214.007.342-.168.067-.168.067-1.085.13" transform="translate(-105.626 -156.275)" fill="#004fa3" fill-rule="evenodd"/>
    <path id="Path_35529" data-name="Path 35529" d="M123.186,173.788a13.143,13.143,0,0,1-.005-2.185c.4-.167.8-.312,1.208-.455,2.7-.33,5.333.716,8.129.654.806-.266.806-.266,1.02-.27-.009.518-.02,1.06-.029,1.6-.382.121-.762.265-1.144.408-3.053.067-6.514-.96-9.178.248" transform="translate(-101.731 -140.897)" fill="#004fa3" fill-rule="evenodd"/>
    <path id="Path_35530" data-name="Path 35530" d="M168.754,164.563c-.129-.018-.257-.036-.364-.056.014-.3.029-.6.045-.877.619.029,1.24.08,1.86.13-.156.73-1.052.728-1.541.8" transform="translate(-138.783 -134.794)" fill="#004fa3" fill-rule="evenodd"/>
    <path id="Path_35531" data-name="Path 35531" d="M317.508,178.714c-.688-.219-2.6-.647-2.972-1.109-.047-.234-.1-.446-.143-.659a22.452,22.452,0,0,0-2.506-.371c-.675-.647-.388-2.042-.187-2.623,2.409-.225,4.721-.873,7.325-.931a12.763,12.763,0,0,1,2.3.654c.811,0,1.623.007,2.436.031a3.191,3.191,0,0,1,.257,2.9,15.637,15.637,0,0,0-3.7.66c-.183.5-2.342,1.377-2.809,1.451" transform="translate(-255.948 -142.482)" fill="#fdb928" fill-rule="evenodd"/>
    <path id="Path_35532" data-name="Path 35532" d="M341.574,178.493c-.04-1.815-.3-1.953-1.95-2.515-.529.246-1.53.948-2.064.9-.009-.428.918-1.611,1.146-1.893.619-.034,1.235-.158,1.876-.172.6.221,1.228.442,1.851.663,1.11.2,2.287-.545,2.689.558a5.879,5.879,0,0,1,.136,1.667,11.073,11.073,0,0,0-3.683.8" transform="translate(-277.318 -143.948)" fill="#004fa3" fill-rule="evenodd"/>
    <path id="Path_35533" data-name="Path 35533" d="M328.084,129.049c-4.826-.022-4.826-.022-8.754.045,0-1.922.022-3.846.043-5.769a5.142,5.142,0,0,1,2.28-3.127c.951-.428,1.635.54,2.338,1.4a1.535,1.535,0,0,0,.172.06,3.031,3.031,0,0,1,2.159-1.8,4.5,4.5,0,0,1,2.524,3.105c.042,1.879.024,3.951-.038,6-.257.025-.491.053-.724.08" transform="translate(-262.39 -98.954)" fill="#fdb928" fill-rule="evenodd"/>
    <path id="Path_35534" data-name="Path 35534" d="M254.311,153.087a1.23,1.23,0,0,0-.581-.179.649.649,0,0,1,.467-.138,3.289,3.289,0,0,0,.283.25,1.63,1.63,0,0,0-.168.067" transform="translate(-208.669 -125.901)" fill="#fdb928" fill-rule="evenodd"/>
    <path id="Path_35535" data-name="Path 35535" d="M342.233,196.6a.846.846,0,0,1-.413-.353c.225-.433.473-.844.719-1.256.255-.005.255-.005.344.078-.053.556-.346.734-.138,1.457-.172.024-.342.049-.512.074" transform="translate(-280.807 -160.471)" fill="#004fa3" fill-rule="evenodd"/>
    <path id="Path_35536" data-name="Path 35536" d="M247.4,191.79l-.13-.062c-.04-.875-.46-2.4.433-2.638,0,.833-.005,1.667.013,2.52-.1.132-.1.132-.315.179" transform="translate(-203.268 -155.641)" fill="#fdb928" fill-rule="evenodd"/>
    <path id="Path_35537" data-name="Path 35537" d="M337.95,193.534a.882.882,0,0,1-.15-.062c.1-.429.311-2.294,1.116-1.69a6.062,6.062,0,0,1-.54,1.7,2.76,2.76,0,0,0-.426.053" transform="translate(-277.515 -157.748)" fill="#004fa3" fill-rule="evenodd"/>
    <path id="Path_35538" data-name="Path 35538" d="M241.3,177.819c-1.963-1.879.469-2.9,1.289-4.452-.009-.406-.228-.679-.234-.871.167-.174.21-.176.572-.226,1.4,1.335-1.092,2.779-1.708,3.883-.016.214-.033.428-.049.663a5.275,5.275,0,0,1,.362.953.927.927,0,0,0-.234.051" transform="translate(-197.879 -141.868)" fill="#fdb928" fill-rule="evenodd"/>
    <path id="Path_35539" data-name="Path 35539" d="M251.415,188.712c-.328-.313.053-.535.219-.71.4-1.29-.46-1.464-.474-2.169a3.458,3.458,0,0,1,.38-.223,1.769,1.769,0,0,1-.125,3.1" transform="translate(-206.565 -152.791)" fill="#fdb928" fill-rule="evenodd"/>
    <path id="Path_35540" data-name="Path 35540" d="M333.768,191.6a2.219,2.219,0,0,1,.342-1.93,2.729,2.729,0,0,1,.426-.053,2.754,2.754,0,0,1-.342,1.93,2.7,2.7,0,0,0-.426.053" transform="translate(-274.128 -156.075)" fill="#004fa3" fill-rule="evenodd"/>
    <path id="Path_35541" data-name="Path 35541" d="M329.417,191.135l-.2-.252c.125-1.114-.138-1.364.82-1.513-.074.536-.125,1.092-.177,1.649a3.666,3.666,0,0,0-.445.116" transform="translate(-270.489 -155.87)" fill="#004fa3" fill-rule="evenodd"/>
    <path id="Path_35542" data-name="Path 35542" d="M242.693,160.137c-1.563-2.145.733-2.536,1.856-3.908,0-.063,0-.129,0-.192a.905.905,0,0,0-.538-.2c.076-.408.223-.54.127-.986.9.109,1.391.14,1.418,1.379-.551,1.165-2.037,1.562-2.655,2.536,0,.192.009.384.013.6.221.315.221.315.225.507a.758.758,0,0,1-.442.266" transform="translate(-199.198 -127.604)" fill="#fdb928" fill-rule="evenodd"/>
    <path id="Path_35543" data-name="Path 35543" d="M247.9,176.8c-.027-.277-.034-.554-.04-.832.083-.065.083-.065.34-.072.158.361.1.81-.3.9" transform="translate(-203.862 -144.841)" fill="#fdb928" fill-rule="evenodd"/>
    <path id="Path_35544" data-name="Path 35544" d="M237.94,158.353c-1.429-.908-1.556-2.743.409-2.743a2.57,2.57,0,0,0-.226.411c.308.377.308.377.353.547-1.239.027-.6.632.112,1.172a2.064,2.064,0,0,1-.648.612" transform="translate(-194.863 -128.227)" fill="#fdb928" fill-rule="evenodd"/>
    <path id="Path_35545" data-name="Path 35545" d="M360.048,144.837l-.451-.118c.011-1.453-.31-4.33,1.34-5.029.034,1.58.118,3.393-.016,5.064l-.873.083" transform="translate(-295.35 -115.191)" fill="#004fa3" fill-rule="evenodd"/>
    <path id="Path_35546" data-name="Path 35546" d="M347.8,145.368a1.1,1.1,0,0,0-.152-.082c.005-1.645.034-3.29.062-4.937.683-.015,1.327,1.082,1.536,1.824-.02,1.025-.018,2.051-.016,3.1l-1.429.1" transform="translate(-285.581 -115.731)" fill="#004fa3" fill-rule="evenodd"/>
    <path id="Path_35547" data-name="Path 35547" d="M326.1,145.868l-1.2-.038c.007-1.623.013-3.247.02-4.85,1.744.645,1.519,3.042,1.472,4.752-.105.045-.21.091-.3.136" transform="translate(-266.951 -116.247)" fill="#004fa3" fill-rule="evenodd"/>
    <path id="Path_35548" data-name="Path 35548" d="M336.047,145.218c-.092-1.3-.141-4.462,1.384-5.008a44.553,44.553,0,0,1,0,4.87c-.469.033-.938.085-1.385.138" transform="translate(-276.048 -115.617)" fill="#004fa3" fill-rule="evenodd"/>
    <path id="Path_35549" data-name="Path 35549" d="M245.637,145.845c-.036-1.6-.134-3.138-.317-4.629a3.1,3.1,0,0,1,1.452.033c-.183,1.35-.368,2.7-.529,4.049a7.284,7.284,0,0,0-.607.547" transform="translate(-201.782 -116.376)" fill="#fdb928" fill-rule="evenodd"/>
    <path id="Path_35550" data-name="Path 35550" d="M261.249,148.512c-.6-.221-1.836-.942-1.528-1.482a3.13,3.13,0,0,1,1.677,1.437.294.294,0,0,0-.148.045" transform="translate(-213.535 -121.201)" fill="#fdb928" fill-rule="evenodd"/>
    <path id="Path_35551" data-name="Path 35551" d="M257.827,151.384c-.237-.123-.474-.225-.69-.326a.6.6,0,0,1,.139-.473l.255-.005a3.016,3.016,0,0,1,.572.8l-.277.005" transform="translate(-211.459 -124.108)" fill="#fdb928" fill-rule="evenodd"/>
    <path id="Path_35552" data-name="Path 35552" d="M263.114,145.684c-.733-.326-2.271-1.339-2.284-1.85a.615.615,0,0,1,.167-.154c.694.476,1.608,1.225,2.456,1.931-.127.025-.232.049-.339.072" transform="translate(-214.484 -118.458)" fill="#fdb928" fill-rule="evenodd"/>
    <path id="Path_35553" data-name="Path 35553" d="M229.11,148.079c-.007-.362,1.275-1.247,1.568-1.509.172.082.176.232.2.422a3.148,3.148,0,0,1-1.769,1.087" transform="translate(-188.508 -120.825)" fill="#fdb928" fill-rule="evenodd"/>
    <path id="Path_35554" data-name="Path 35554" d="M235.71,151.681a7.567,7.567,0,0,1,.52-.674l.321-.007c.288.571-.522.63-.84.681" transform="translate(-193.913 -124.452)" fill="#fdb928" fill-rule="evenodd"/>
    <path id="Path_35555" data-name="Path 35555" d="M265.987,143.923a6.406,6.406,0,0,1-3.207-2.129c.547-.353,2.657,1.352,3.394,1.89,0,.063,0,.129,0,.192a.665.665,0,0,0-.19.047" transform="translate(-216.081 -116.875)" fill="#fdb928" fill-rule="evenodd"/>
    <path id="Path_35556" data-name="Path 35556" d="M223.21,145.727c.27-.326,2.521-2.834,2.546-1.68-.8.658-1.61,1.573-2.546,1.68" transform="translate(-183.676 -118.512)" fill="#fdb928" fill-rule="evenodd"/>
    <path id="Path_35557" data-name="Path 35557" d="M259.584,137.9c-1.463-.544-2.887-2.073-3.979-2.219-1.059.366-.724,1.96-1.786,2.283a16.052,16.052,0,0,1,.8-3.18c.168-.089.168-.089,1-.107.476.288,4.39,2.509,4.554,3.167a5.5,5.5,0,0,0-.6.056" transform="translate(-208.743 -111.089)" fill="#fdb928" fill-rule="evenodd"/>
    <path id="Path_35558" data-name="Path 35558" d="M217.274,143.584c0-.063,0-.107,0-.15.042-.022,3.651-2.922,3.312-1.824-.987.748-2.117,1.843-3.309,1.975" transform="translate(-178.812 -116.559)" fill="#fdb928" fill-rule="evenodd"/>
    <path id="Path_35559" data-name="Path 35559" d="M327.58,131.991a4.186,4.186,0,0,0-1.561-2.017c-.02-.875.949-1.473,1.537-1.935.534-.013,1.411,1.015,1.577,1.8a4.168,4.168,0,0,0-.9.853,14.433,14.433,0,0,1-.654,1.3" transform="translate(-267.867 -105.651)" fill="#004fa3" fill-rule="evenodd"/>
    <path id="Path_35560" data-name="Path 35560" d="M350.894,131.028a3.509,3.509,0,0,0-1.536-1.846,2.584,2.584,0,0,1,1.621-2.022,3.027,3.027,0,0,1,1.389,1.935,4.061,4.061,0,0,0-1.306,1.823.455.455,0,0,0-.168.111" transform="translate(-286.98 -104.931)" fill="#004fa3" fill-rule="evenodd"/>
    <path id="Path_35561" data-name="Path 35561" d="M244.588,139.22a1.1,1.1,0,0,0-.152-.082c0-.107,0-.192-.005-.277.554-.013,1.132,0,1.708.005a.894.894,0,0,0,.025.214c-.531.031-1.063.085-1.576.14" transform="translate(-201.053 -114.508)" fill="#fdb928" fill-rule="evenodd"/>
    <path id="Path_35562" data-name="Path 35562" d="M244.2,126.337c-.9-.216-1.047-.042-1.17-.721.3-.049.618-.078.936-.107-2.014-1.279.453-2.7.934-1.2.016.727-.11.794-.721,1.19.342.014.706.049,1.07.083-.038.194-.076.386-.116.58-.317.051-.636.1-.934.17" transform="translate(-199.907 -102.07)" fill="#fdb928" fill-rule="evenodd"/>
    <path id="Path_35563" data-name="Path 35563" d="M171.218,146.581l1.479-.1c.022,0,.056-.034-.029-.034a12.686,12.686,0,0,0-1.458.082c-.051.011,0,.036.007.051" transform="translate(-141.076 -120.725)" fill="#231f20" fill-rule="evenodd"/>
    <path id="Path_35564" data-name="Path 35564" d="M105.58,218.74h52.344v15.411H105.58" transform="translate(-87.348 -179.919)" fill="#fff" fill-rule="evenodd"/>
    <path id="Path_35565" data-name="Path 35565" d="M212.746,224.983h1.947v.547h-1.155v.446h.987v.515h-.987v1.042h-.79m-2.282-1.27a.852.852,0,0,0,.143.554.544.544,0,0,0,.784,0,.946.946,0,0,0,.139-.592.788.788,0,0,0-.145-.525.494.494,0,0,0-.393-.165.479.479,0,0,0-.382.168A.839.839,0,0,0,210.466,226.263Zm-.788,0a1.206,1.206,0,0,1,1.315-1.319,1.327,1.327,0,0,1,.98.342,1.292,1.292,0,0,1,.344.957,1.574,1.574,0,0,1-.15.732,1.073,1.073,0,0,1-.435.446,1.427,1.427,0,0,1-.708.159,1.616,1.616,0,0,1-.714-.138,1.088,1.088,0,0,1-.458-.435A1.48,1.48,0,0,1,209.678,226.259Zm-4.111-1.276h.875l.514.861.514-.861h.869l-.991,1.48v1.067h-.79v-1.067Zm-2.492,0h2.392v.629h-.8v1.919h-.788v-1.919h-.8Zm-1.173,0h.79v2.547h-.79Zm-1.1,1.507.69.208a1.29,1.29,0,0,1-.219.486.931.931,0,0,1-.371.294,1.369,1.369,0,0,1-.563.1,1.654,1.654,0,0,1-.679-.12,1.079,1.079,0,0,1-.455-.426,1.448,1.448,0,0,1-.19-.779,1.323,1.323,0,0,1,.337-.973,1.28,1.28,0,0,1,.951-.341,1.3,1.3,0,0,1,.757.194,1.14,1.14,0,0,1,.409.6l-.7.154a.563.563,0,0,0-.076-.17.457.457,0,0,0-.161-.139.495.495,0,0,0-.623.167.909.909,0,0,0-.109.5.961.961,0,0,0,.129.582.507.507,0,0,0,.7.031A.774.774,0,0,0,200.8,226.491Z" transform="translate(-163.859 -184.996)" fill="#fdb928" fill-rule="evenodd"/>
    <path id="Path_35566" data-name="Path 35566" d="M157.144,245.664h1.786l2.329,3.687v-3.687h1.8v6.664h-1.8l-2.318-3.658v3.658h-1.8m-5.54-3.317a2.37,2.37,0,0,0,.348,1.451,1.253,1.253,0,0,0,1.9.009,2.615,2.615,0,0,0,.339-1.549,2.178,2.178,0,0,0-.353-1.377,1.168,1.168,0,0,0-.956-.433,1.127,1.127,0,0,0-.927.44A2.375,2.375,0,0,0,151.6,249.01ZM149.692,249a3.6,3.6,0,0,1,.844-2.54,3.049,3.049,0,0,1,2.351-.91,3.1,3.1,0,0,1,2.381.893,3.523,3.523,0,0,1,.835,2.5,4.383,4.383,0,0,1-.366,1.917,2.712,2.712,0,0,1-1.054,1.163,3.283,3.283,0,0,1-1.72.417,3.724,3.724,0,0,1-1.733-.359,2.73,2.73,0,0,1-1.112-1.138A4.016,4.016,0,0,1,149.692,249Zm-6.137-3.335h5.809v1.647h-1.95v5.017H145.5v-5.017h-1.949Zm-3.9,2.841h.467a1.144,1.144,0,0,0,.777-.207.691.691,0,0,0,.223-.529.775.775,0,0,0-.194-.533.954.954,0,0,0-.728-.219h-.545Zm-1.92-2.841h3.176a1.84,1.84,0,0,1,2.07,2.045,2.138,2.138,0,0,1-.563,1.578,2.331,2.331,0,0,1-1.72.567h-1.045v2.473h-1.92v-6.664Zm-8.167,0h2.515l.971,4.055.967-4.055h2.506v6.664h-1.561v-5.082l-1.212,5.082h-1.412l-1.206-5.082v5.082h-1.565v-6.664Zm-5.507,3.346a2.369,2.369,0,0,0,.348,1.451,1.253,1.253,0,0,0,1.9.009,2.615,2.615,0,0,0,.339-1.549,2.178,2.178,0,0,0-.353-1.377,1.168,1.168,0,0,0-.956-.433,1.127,1.127,0,0,0-.927.44A2.375,2.375,0,0,0,124.066,249.01ZM122.154,249a3.6,3.6,0,0,1,.844-2.54,3.049,3.049,0,0,1,2.351-.91,3.1,3.1,0,0,1,2.381.893,3.523,3.523,0,0,1,.835,2.5,4.383,4.383,0,0,1-.366,1.917,2.712,2.712,0,0,1-1.054,1.163,3.279,3.279,0,0,1-1.72.417,3.724,3.724,0,0,1-1.733-.359,2.719,2.719,0,0,1-1.112-1.138A4.016,4.016,0,0,1,122.154,249Zm-2.361.605,1.675.545a3.481,3.481,0,0,1-.531,1.268,2.337,2.337,0,0,1-.9.768,3.139,3.139,0,0,1-1.369.259,3.731,3.731,0,0,1-1.648-.315,2.7,2.7,0,0,1-1.1-1.112,4.013,4.013,0,0,1-.464-2.035,3.624,3.624,0,0,1,.817-2.544,2.967,2.967,0,0,1,5.143,1.183l-1.688.4a1.669,1.669,0,0,0-.187-.448,1.146,1.146,0,0,0-.391-.362,1.061,1.061,0,0,0-.52-.127,1.1,1.1,0,0,0-.994.563,2.555,2.555,0,0,0-.263,1.314,2.647,2.647,0,0,0,.313,1.52,1.036,1.036,0,0,0,.876.411,1.025,1.025,0,0,0,.829-.332A2.129,2.129,0,0,0,119.793,249.6Z" transform="translate(-95.43 -201.872)" fill="#004fa3" fill-rule="evenodd"/>
    <path id="Path_35567" data-name="Path 35567" d="M197.442,288.532a.251.251,0,0,0,.069.185.211.211,0,0,0,.156.071.2.2,0,0,0,.152-.072.261.261,0,0,0,.067-.185.255.255,0,0,0-.069-.183.207.207,0,0,0-.311,0,.275.275,0,0,0-.063.188m.025-.73a.188.188,0,0,0,.054.141.2.2,0,0,0,.147.054.186.186,0,0,0,.134-.053.192.192,0,0,0,.053-.138.2.2,0,0,0-.054-.143.2.2,0,0,0-.279,0A.18.18,0,0,0,197.468,287.8Zm-.212.333a.436.436,0,0,1-.161-.132.388.388,0,0,1-.069-.23.409.409,0,0,1,.2-.35.738.738,0,0,1,.413-.1.8.8,0,0,1,.5.13.4.4,0,0,1,.163.326.381.381,0,0,1-.065.214.531.531,0,0,1-.152.143.475.475,0,0,1,.206.176.445.445,0,0,1,.069.241.505.505,0,0,1-.058.237.481.481,0,0,1-.143.17.58.58,0,0,1-.212.089,1.3,1.3,0,0,1-.27.029,1.07,1.07,0,0,1-.413-.063.458.458,0,0,1-.215-.188.534.534,0,0,1-.074-.277.458.458,0,0,1,.069-.254A.4.4,0,0,1,197.256,288.135Zm-1.4.4a.252.252,0,0,0,.069.185.211.211,0,0,0,.156.071.2.2,0,0,0,.152-.072.261.261,0,0,0,.067-.185.255.255,0,0,0-.069-.183.207.207,0,0,0-.311,0A.276.276,0,0,0,195.859,288.532Zm.025-.73a.188.188,0,0,0,.054.141.2.2,0,0,0,.147.054.186.186,0,0,0,.134-.053.192.192,0,0,0,.053-.138.2.2,0,0,0-.054-.143.2.2,0,0,0-.279,0A.187.187,0,0,0,195.885,287.8Zm-.212.333a.436.436,0,0,1-.161-.132.388.388,0,0,1-.069-.23.409.409,0,0,1,.2-.35.738.738,0,0,1,.413-.1.8.8,0,0,1,.5.13.4.4,0,0,1,.163.326.38.38,0,0,1-.065.214.531.531,0,0,1-.152.143.459.459,0,0,1,.2.176.445.445,0,0,1,.069.241.505.505,0,0,1-.058.237.481.481,0,0,1-.143.17.567.567,0,0,1-.212.089,1.3,1.3,0,0,1-.272.029,1.07,1.07,0,0,1-.413-.063.458.458,0,0,1-.216-.188.534.534,0,0,1-.074-.277.458.458,0,0,1,.069-.254A.434.434,0,0,1,195.673,288.135Zm-1.4.4a.252.252,0,0,0,.069.185.211.211,0,0,0,.156.071.2.2,0,0,0,.152-.072.261.261,0,0,0,.067-.185.255.255,0,0,0-.069-.183.207.207,0,0,0-.311,0A.276.276,0,0,0,194.277,288.532Zm.025-.73a.188.188,0,0,0,.054.141.2.2,0,0,0,.147.054.186.186,0,0,0,.134-.053.192.192,0,0,0,.053-.138.2.2,0,0,0-.054-.143.2.2,0,0,0-.279,0A.187.187,0,0,0,194.3,287.8Zm-.212.333a.436.436,0,0,1-.161-.132.4.4,0,0,1-.069-.23.409.409,0,0,1,.2-.35.738.738,0,0,1,.413-.1.8.8,0,0,1,.5.13.4.4,0,0,1,.163.326.381.381,0,0,1-.065.214.531.531,0,0,1-.152.143.475.475,0,0,1,.206.176.445.445,0,0,1,.069.241.505.505,0,0,1-.058.237.481.481,0,0,1-.143.17.567.567,0,0,1-.212.089,1.3,1.3,0,0,1-.272.029,1.07,1.07,0,0,1-.413-.063.458.458,0,0,1-.215-.188.534.534,0,0,1-.074-.277.457.457,0,0,1,.069-.254A.429.429,0,0,1,194.09,288.135Zm-.8-.813v1.728h-.478v-1.132a1.528,1.528,0,0,1-.225.143,1.9,1.9,0,0,1-.272.105v-.388a1.164,1.164,0,0,0,.375-.187.777.777,0,0,0,.208-.268h.391Zm-3.4.5h.44v.2a.672.672,0,0,1,.2-.176.533.533,0,0,1,.246-.053.408.408,0,0,1,.306.116.5.5,0,0,1,.11.359v.783h-.474v-.676a.238.238,0,0,0-.043-.163.153.153,0,0,0-.121-.049.174.174,0,0,0-.139.065.376.376,0,0,0-.053.234v.591H189.9Zm-.771,0h.471v1.23h-.471Zm0-.469h.471v.321h-.471Zm-1.568,1.082a.319.319,0,0,0-.062-.216.2.2,0,0,0-.156-.071.171.171,0,0,0-.138.069.36.36,0,0,0-.056.23.351.351,0,0,0,.058.221.175.175,0,0,0,.141.071.19.19,0,0,0,.15-.071A.364.364,0,0,0,187.556,288.431Zm.473-1.082v1.7h-.442v-.181a.582.582,0,0,1-.168.156.5.5,0,0,1-.226.053.438.438,0,0,1-.384-.19.791.791,0,0,1-.132-.464.67.67,0,0,1,.147-.467.477.477,0,0,1,.371-.163.5.5,0,0,1,.2.038.478.478,0,0,1,.159.111v-.589h.476Zm-1.99.975a.316.316,0,0,0-.074-.2.213.213,0,0,0-.158-.06.216.216,0,0,0-.179.089.316.316,0,0,0-.054.165h.465Zm.478.226h-.945a.3.3,0,0,0,.062.169.225.225,0,0,0,.177.08.262.262,0,0,0,.132-.034.289.289,0,0,0,.081-.078l.465.043a.664.664,0,0,1-.257.266.949.949,0,0,1-.433.08.887.887,0,0,1-.384-.069.559.559,0,0,1-.232-.219.658.658,0,0,1-.092-.353.622.622,0,0,1,.185-.467.7.7,0,0,1,.511-.179.915.915,0,0,1,.417.08.545.545,0,0,1,.234.232.86.86,0,0,1,.08.395Zm-1.849-1.2v.467h.259v.344h-.259v.437a.263.263,0,0,0,.014.105.089.089,0,0,0,.081.04.541.541,0,0,0,.147-.031l.034.326a1.529,1.529,0,0,1-.326.038.551.551,0,0,1-.259-.045.27.27,0,0,1-.123-.138.8.8,0,0,1-.04-.3v-.433h-.174v-.344h.174v-.226Zm-1.271,1.116c-.065.024-.132.043-.2.062a.447.447,0,0,0-.181.076.115.115,0,0,0-.04.087.116.116,0,0,0,.038.091.162.162,0,0,0,.114.034.3.3,0,0,0,.147-.038.219.219,0,0,0,.1-.094.3.3,0,0,0,.029-.143v-.074Zm-.409-.248-.451-.047a.5.5,0,0,1,.074-.187.425.425,0,0,1,.138-.118.585.585,0,0,1,.177-.056,1.492,1.492,0,0,1,.246-.02,1.9,1.9,0,0,1,.34.024.434.434,0,0,1,.214.1.351.351,0,0,1,.1.147.525.525,0,0,1,.034.183v.544a.659.659,0,0,0,.011.136.577.577,0,0,0,.049.125h-.442a.4.4,0,0,1-.034-.072.554.554,0,0,1-.016-.078.592.592,0,0,1-.185.127.752.752,0,0,1-.29.051.494.494,0,0,1-.335-.1.323.323,0,0,1-.114-.252.328.328,0,0,1,.081-.23.554.554,0,0,1,.3-.134c.177-.036.292-.06.344-.074a1.508,1.508,0,0,0,.167-.056.168.168,0,0,0-.036-.121.177.177,0,0,0-.127-.034.321.321,0,0,0-.174.038A.206.206,0,0,0,182.988,288.217Zm-1.519-.4h.442v.2a.487.487,0,0,1,.132-.179.279.279,0,0,1,.167-.049.5.5,0,0,1,.228.065l-.147.337a.363.363,0,0,0-.132-.034.161.161,0,0,0-.143.076.779.779,0,0,0-.072.4v.413h-.474Zm-1.172.618a.363.363,0,0,0,.067.243.208.208,0,0,0,.167.08.2.2,0,0,0,.167-.078.387.387,0,0,0,.065-.25.361.361,0,0,0-.065-.237.2.2,0,0,0-.163-.078.215.215,0,0,0-.17.08A.371.371,0,0,0,180.3,288.436Zm-.473,0a.616.616,0,0,1,.19-.464.822.822,0,0,1,1.07.031.671.671,0,0,1-.036.891.715.715,0,0,1-.52.181.738.738,0,0,1-.48-.15A.605.605,0,0,1,179.824,288.436Zm-1.049,0a.321.321,0,0,0,.062.217.2.2,0,0,0,.156.071.166.166,0,0,0,.138-.069.372.372,0,0,0,.056-.23.345.345,0,0,0-.058-.219.175.175,0,0,0-.141-.071.19.19,0,0,0-.15.071A.349.349,0,0,0,178.775,288.436Zm-.473,1.08v-1.7h.442V288a.61.61,0,0,1,.168-.156.482.482,0,0,1,.228-.054.444.444,0,0,1,.382.188.775.775,0,0,1,.134.467.678.678,0,0,1-.147.469.484.484,0,0,1-.371.161.542.542,0,0,1-.2-.036.484.484,0,0,1-.161-.111v.587H178.3Zm-1.15-1.7h.442v.2a.487.487,0,0,1,.132-.179.279.279,0,0,1,.167-.049.5.5,0,0,1,.228.065l-.147.337a.363.363,0,0,0-.132-.034.163.163,0,0,0-.143.076.78.78,0,0,0-.072.4v.413h-.474Zm-1.172.618a.363.363,0,0,0,.067.243.208.208,0,0,0,.167.08.2.2,0,0,0,.167-.078.386.386,0,0,0,.065-.25.36.36,0,0,0-.065-.237.2.2,0,0,0-.163-.078.216.216,0,0,0-.17.08A.361.361,0,0,0,175.981,288.436Zm-.473,0a.616.616,0,0,1,.19-.464.822.822,0,0,1,1.07.031.671.671,0,0,1-.036.891.717.717,0,0,1-.522.181.738.738,0,0,1-.48-.15A.6.6,0,0,1,175.509,288.436Zm-.607.132.447.051a.639.639,0,0,1-.121.243.565.565,0,0,1-.216.159.842.842,0,0,1-.333.056,1.264,1.264,0,0,1-.326-.036.592.592,0,0,1-.225-.118.561.561,0,0,1-.147-.192.66.66,0,0,1-.054-.292.691.691,0,0,1,.065-.317.543.543,0,0,1,.13-.167.58.58,0,0,1,.168-.109.936.936,0,0,1,.353-.056.814.814,0,0,1,.46.109.563.563,0,0,1,.221.315l-.444.06a.2.2,0,0,0-.076-.118.273.273,0,0,0-.339.043.379.379,0,0,0-.072.254.325.325,0,0,0,.072.23.234.234,0,0,0,.183.078.256.256,0,0,0,.156-.047A.29.29,0,0,0,174.9,288.568Zm-2.5-.75h.44v.2a.671.671,0,0,1,.2-.176.532.532,0,0,1,.246-.053.408.408,0,0,1,.306.116.5.5,0,0,1,.11.359v.783h-.474v-.676a.238.238,0,0,0-.043-.163.153.153,0,0,0-.121-.049.174.174,0,0,0-.139.065.376.376,0,0,0-.053.234v.591H172.4Zm-.871-.469h.525v1.7h-.525Z" transform="translate(-141.355 -236.074)" fill="#fdb928" fill-rule="evenodd"/>
  </g>
  <path id="Path_35569" data-name="Path 35569" d="M9.7.2A8.428,8.428,0,0,1,5.35-.888,7.133,7.133,0,0,1,2.513-4.013a10.927,10.927,0,0,1-.988-4.812,10.845,10.845,0,0,1,.988-4.8A7.147,7.147,0,0,1,5.35-16.737,8.428,8.428,0,0,1,9.7-17.825a9.613,9.613,0,0,1,3.35.563A7.409,7.409,0,0,1,15.7-15.6l-.775,1.575a8.974,8.974,0,0,0-2.5-1.55,7.409,7.409,0,0,0-2.7-.475,5.539,5.539,0,0,0-4.488,1.888A8.063,8.063,0,0,0,3.65-8.825,8.105,8.105,0,0,0,5.238-3.463,5.539,5.539,0,0,0,9.725-1.575a7.409,7.409,0,0,0,2.7-.475,8.974,8.974,0,0,0,2.5-1.55L15.7-2.025A7.409,7.409,0,0,1,13.05-.362,9.613,9.613,0,0,1,9.7.2Zm27-4.725H27.5L25.55,0h-2.1L31.2-17.625h1.775L40.725,0H38.65Zm-.725-1.7L32.1-15.25,28.225-6.225Zm13.875-11.4H51.9V-1.75h8.825V0H49.85Zm22,0H73.9V0H71.85Zm14.9,0h10.9V-15.9H88.775v6.075H97.15V-8.1H88.775V0H86.75ZM115.15.2a8.055,8.055,0,0,1-4.263-1.1A7.22,7.22,0,0,1,108.1-4.025a10.9,10.9,0,0,1-.975-4.775,11.169,11.169,0,0,1,.963-4.812,7.052,7.052,0,0,1,2.775-3.125,8.177,8.177,0,0,1,4.288-1.088,8.177,8.177,0,0,1,4.287,1.088,7.052,7.052,0,0,1,2.775,3.125,11.105,11.105,0,0,1,.963,4.788,10.983,10.983,0,0,1-.975,4.787A7.207,7.207,0,0,1,119.412-.9,8.055,8.055,0,0,1,115.15.2Zm0-1.75a5.351,5.351,0,0,0,4.362-1.888,8.238,8.238,0,0,0,1.563-5.387,8.232,8.232,0,0,0-1.55-5.375,5.359,5.359,0,0,0-4.375-1.875,5.351,5.351,0,0,0-4.363,1.888,8.2,8.2,0,0,0-1.562,5.363,8.247,8.247,0,0,0,1.563,5.375A5.335,5.335,0,0,0,115.15-1.55ZM148.25,0H146l-3-5.65a3.261,3.261,0,0,0-1.288-1.412A4.364,4.364,0,0,0,139.7-7.45h-3.3V0h-2.025V-17.625h7.25a6.639,6.639,0,0,1,4.387,1.275,4.628,4.628,0,0,1,1.512,3.75,4.7,4.7,0,0,1-1.162,3.313A5.44,5.44,0,0,1,143.05-7.7a2.961,2.961,0,0,1,1.188.675,4.774,4.774,0,0,1,.938,1.275Zm-6.8-9.15a4.679,4.679,0,0,0,3.063-.85,3.172,3.172,0,0,0,1.012-2.575,3.084,3.084,0,0,0-1-2.525,4.773,4.773,0,0,0-3.075-.825H136.4V-9.15Zm31.7-8.475V0h-1.575L160.95-14.175V0h-1.925V-17.625H160.6L171.225-3.45V-17.625Zm11.85,0h2.05V0H185Zm25.425,13.1h-9.2L199.275,0h-2.1l7.75-17.625H206.7L214.45,0h-2.075Zm-.725-1.7-3.875-9.025L201.95-6.225Z" transform="translate(100 73)" fill="#364352"/>
  <path id="Path_35568" data-name="Path 35568" d="M24.24-.528a43.662,43.662,0,0,1-9.168,1.1A17.465,17.465,0,0,1,8.544-.432,8.05,8.05,0,0,1,4.7-3.648a14.3,14.3,0,0,1-1.92-5.184,44.029,44.029,0,0,1-.528-7.488q0-9.456,2.664-13.176t9.816-3.72a41.757,41.757,0,0,1,9.552,1.3L24.1-26.64a54.513,54.513,0,0,0-7.9-.72,8.883,8.883,0,0,0-4.488.84A5.193,5.193,0,0,0,9.72-23.328a34.107,34.107,0,0,0-.648,8.016q0,5.664,1.32,7.848t5.28,2.184A56.715,56.715,0,0,0,24.1-5.952ZM36.576-7.68q1.44,2.5,5.328,2.5t5.3-2.52q1.416-2.52,1.416-8.448t-1.44-8.616q-1.44-2.688-5.28-2.688t-5.28,2.688q-1.44,2.688-1.44,8.616T36.576-7.68ZM52.368-3.456Q49.344.576,41.9.576T31.416-3.48q-3.048-4.056-3.048-12.7t3.048-12.84q3.048-4.2,10.488-4.2t10.488,4.2q3.048,4.2,3.048,12.84T52.368-3.456ZM61.584,0V-32.64h11.28l5.76,23.808,5.76-23.808h11.28V0H89.04V-25.248h-.72L81.936-1.44H75.312L68.928-25.248h-.72V0Zm53.664-9.5h-5.376V0h-6.624V-32.64h12q11.616,0,11.616,11.328,0,5.712-2.952,8.76T115.248-9.5Zm-5.376-5.664H115.2q4.944,0,4.944-6.144a6.38,6.38,0,0,0-1.2-4.344,4.823,4.823,0,0,0-3.744-1.32h-5.328Zm19.2-11.616V-32.64h24v5.856h-8.64V0h-6.624V-26.784Zm35.136,19.1q1.44,2.5,5.328,2.5t5.3-2.52q1.416-2.52,1.416-8.448t-1.44-8.616q-1.44-2.688-5.28-2.688t-5.28,2.688q-1.44,2.688-1.44,8.616T164.208-7.68ZM180-3.456Q176.976.576,169.536.576T159.048-3.48Q156-7.536,156-16.176t3.048-12.84q3.048-4.2,10.488-4.2t10.488,4.2q3.048,4.2,3.048,12.84T180-3.456ZM189.216,0V-32.64H200.4l7.872,26.88h.48V-32.64h6.624V0h-10.9l-8.16-26.88h-.48V0Z" transform="translate(99 48)" fill="#003878"/>
</svg>