<?xml version="1.0" encoding="UTF-8" standalone="no"?>
<!-- Created with Inkscape (http://www.inkscape.org/) -->
<svg xmlns:dc="http://purl.org/dc/elements/1.1/" xmlns:cc="http://creativecommons.org/ns#" xmlns:rdf="http://www.w3.org/1999/02/22-rdf-syntax-ns#" xmlns:svg="http://www.w3.org/2000/svg" xmlns="http://www.w3.org/2000/svg" xmlns:sodipodi="http://sodipodi.sourceforge.net/DTD/sodipodi-0.dtd" xmlns:inkscape="http://www.inkscape.org/namespaces/inkscape" width="1000" height="296.34833" viewBox="0 0 264.58333 78.408831" version="1.1" id="svg8" inkscape:version="0.92.4 (5da689c313, 2019-01-14)" sodipodi:docname="a.svg">
  <defs id="defs2">
    <clipPath clipPathUnits="userSpaceOnUse" id="clipPath303">
      <path d="m 27,512.5 h 191.05 v -63 H 27 Z" id="path301" inkscape:connector-curvature="0" style="clip-rule:evenodd"/>
    </clipPath>
    <clipPath clipPathUnits="userSpaceOnUse" id="clipPath309">
      <path d="M 0,612 H 792 V 0.06 H 0 Z" id="path307" inkscape:connector-curvature="0"/>
    </clipPath>
    <clipPath clipPathUnits="userSpaceOnUse" id="clipPath229">
      <path d="m 53.934,511.879 c 0,0 -0.105,0.904 -1.803,-6.7 -1.098,-4.913 -4.011,-14.223 2.18,-14.095 8.03,0.165 14.541,6.093 20.67,7.633 2.513,0.632 4.917,0.728 4.917,0.728 0,0 -3.897,1.379 -6.653,0.728 -3.918,-0.925 -5.578,-1.662 -8.564,-2.875 -3.68,-1.494 -5.527,1.364 -3.48,7.881 2.331,7.42 2.626,6.665 2.626,6.665 z m -11.766,0 -5.592,-19.303 c -1.853,-6.395 -1.34,-15.205 6.911,-15.609 11.134,-0.546 17.875,5.539 22.524,8.553 8.097,5.25 13.256,8.946 16.727,10.206 6.568,2.384 12.958,4.722 21.675,3.088 2.29,-0.43 3.299,-0.43 5.314,-1.058 l -6.159,2.938 c 0,0 -5.479,1.242 -3.584,7.724 0.588,2.008 0.513,3.461 0.513,3.461 H 82.181 l -0.27,-0.969 c 0,0 -1.731,-4.106 -1.693,-7.626 0.047,-4.414 4.858,-5.134 4.592,-5.18 0,0 -3.135,0.42 -9.974,-1.735 -5.005,-1.577 -9.768,-5.014 -18.834,-8.292 -8.077,-2.921 -10.719,0.805 -6.79,15.076 1.949,7.083 2.286,8.726 2.286,8.726 z M 34.329,482.11 29.243,463.436 h 22.079 c 0,0 2.887,5.125 4.9,7.864 7.864,10.694 19.249,12.841 17.112,6.087 l -4.412,-13.951 h 22.445 c 0,0 1.061,9.995 4.023,20.46 1.359,4.805 4.706,6.51 8.883,6.893 -3.66,2.573 -6.297,3.655 -10.619,4.339 -9.516,1.507 -15.995,-5.577 -25.762,-11.413 -6.652,-3.976 -9.417,-6.239 -17.078,-10.303 -18.075,-9.589 -16.485,8.698 -16.485,8.698" id="path227" inkscape:connector-curvature="0" style="clip-rule:evenodd"/>
    </clipPath>
    <clipPath clipPathUnits="userSpaceOnUse" id="clipPath235">
      <path d="m 27,512.5 h 191.05 v -63 H 27 Z" id="path233" inkscape:connector-curvature="0" style="clip-rule:evenodd"/>
    </clipPath>
    <clipPath clipPathUnits="userSpaceOnUse" id="clipPath241">
      <path d="M 0,612 H 792 V 0.06 H 0 Z" id="path239" inkscape:connector-curvature="0"/>
    </clipPath>
    <clipPath clipPathUnits="userSpaceOnUse" id="clipPath83">
      <path d="M 43.045,511.95 30.014,463.543 c 0,0 21.004,0 21.003,0 -11.8,0 14.908,17.822 14.908,17.822 l 16.482,7.47 21.005,2.111 5.594,7.169 -13.835,3.719 -19.397,-7.17 -18.358,-10.887 -13.031,6.365 4.522,21.54 -5.862,0.268" id="path81" inkscape:connector-curvature="0"/>
    </clipPath>
    <clipPath clipPathUnits="userSpaceOnUse" id="clipPath25">
      <path d="m 27,512.5 h 191.05 v -63 H 27 Z" id="path23" inkscape:connector-curvature="0" style="clip-rule:evenodd"/>
    </clipPath>
    <clipPath clipPathUnits="userSpaceOnUse" id="clipPath31">
      <path d="M 0,612 H 792 V 0.06 H 0 Z" id="path29" inkscape:connector-curvature="0"/>
    </clipPath>
  </defs>
  <sodipodi:namedview id="base" pagecolor="#ffffff" bordercolor="#666666" borderopacity="1.0" inkscape:pageopacity="0.0" inkscape:pageshadow="2" inkscape:zoom="0.7" inkscape:cx="404.16494" inkscape:cy="-22.211503" inkscape:document-units="px" inkscape:current-layer="layer1" showgrid="false" units="px" inkscape:window-width="1920" inkscape:window-height="1017" inkscape:window-x="1912" inkscape:window-y="-8" inkscape:window-maximized="1" fit-margin-top="0" fit-margin-left="0" fit-margin-right="0" fit-margin-bottom="0"/>
  <metadata id="metadata5">
    <rdf:RDF>
      <cc:Work rdf:about="">
        <dc:format>image/svg+xml</dc:format>
        <dc:type rdf:resource="http://purl.org/dc/dcmitype/StillImage"/>
        <dc:title/>
      </cc:Work>
    </rdf:RDF>
  </metadata>
  <g inkscape:label="Layer 1" inkscape:groupmode="layer" id="layer1" transform="translate(246.59021,137.97652)">
    <g transform="matrix(1.6162104,0,0,-1.6162104,-293.85305,689.44239)" id="g19">
      <g id="g21" clip-path="url(#clipPath25)">
        <g id="g27" clip-path="url(#clipPath31)">
          <path d="m 104.363,475.017 h 1.176 v 5.057 h -1.176 z" style="fill:#0162a7;fill-opacity:1;fill-rule:nonzero;stroke:none" id="path33" inkscape:connector-curvature="0"/>
          <path d="m 108.116,475.017 h 1.058 v 2.734 c 0,0.147 -0.009,0.412 -0.049,0.804 0.138,-0.157 0.275,-0.284 0.422,-0.412 l 3.714,-3.126 h 0.804 v 5.057 h -1.059 v -2.656 c 0,-0.157 0.02,-0.451 0.049,-0.872 -0.176,0.206 -0.372,0.382 -0.578,0.549 l -3.557,2.979 h -0.804 v -5.057" style="fill:#0162a7;fill-opacity:1;fill-rule:nonzero;stroke:none" id="path35" inkscape:connector-curvature="0"/>
          <path d="m 118.996,479.172 h 2.333 v 0.902 h -5.831 v -0.902 h 2.322 v -4.155 h 1.176 v 4.155" style="fill:#0162a7;fill-opacity:1;fill-rule:nonzero;stroke:none" id="path37" inkscape:connector-curvature="0"/>
          <path d="m 122.77,475.017 h 5.223 v 0.951 h -4.047 v 1.254 h 2.332 v 0.862 h -2.332 v 1.127 h 3.999 v 0.863 h -5.175 v -5.057" style="fill:#0162a7;fill-opacity:1;fill-rule:nonzero;stroke:none" id="path39" inkscape:connector-curvature="0"/>
          <path d="m 130.164,475.017 h 1.156 v 1.911 h 1.118 l 2.038,-1.911 h 1.686 l -2.333,1.911 h 0.667 c 0.774,0 1.136,0.274 1.136,0.98 v 1.186 c 0,0.705 -0.362,0.98 -1.136,0.98 h -4.332 z m 3.802,4.185 c 0.363,0 0.53,-0.069 0.53,-0.402 v -0.608 c 0,-0.333 -0.167,-0.402 -0.53,-0.402 h -2.646 v 1.412 h 2.646" style="fill:#0162a7;fill-opacity:1;fill-rule:evenodd;stroke:none" id="path41" inkscape:connector-curvature="0"/>
          <path d="m 138.014,475.017 h 1.058 v 2.734 c 0,0.147 -0.009,0.412 -0.049,0.804 0.138,-0.157 0.275,-0.284 0.422,-0.412 l 3.714,-3.126 h 0.804 v 5.057 h -1.059 v -2.656 c 0,-0.157 0.02,-0.451 0.049,-0.872 -0.176,0.206 -0.372,0.382 -0.578,0.549 l -3.557,2.979 h -0.804 v -5.057" style="fill:#0162a7;fill-opacity:1;fill-rule:nonzero;stroke:none" id="path43" inkscape:connector-curvature="0"/>
          <path d="m 145.572,475.017 h 1.176 l 0.588,1.107 h 3.205 l 0.607,-1.107 h 1.323 l -2.9,5.057 h -1.137 z m 2.264,2.019 1.127,2.058 1.088,-2.058 h -2.215" style="fill:#0162a7;fill-opacity:1;fill-rule:evenodd;stroke:none" id="path45" inkscape:connector-curvature="0"/>
          <path d="m 155.762,479.172 h 2.332 v 0.902 h -5.831 v -0.902 h 2.323 v -4.155 h 1.176 v 4.155" style="fill:#0162a7;fill-opacity:1;fill-rule:nonzero;stroke:none" id="path47" inkscape:connector-curvature="0"/>
          <path d="m 159.535,475.017 h 1.176 v 5.057 h -1.176 z" style="fill:#0162a7;fill-opacity:1;fill-rule:nonzero;stroke:none" id="path49" inkscape:connector-curvature="0"/>
          <path d="m 164.367,479.172 h 3.881 v -3.205 h -3.881 z m -1.176,-0.294 v -2.665 c 0,-0.951 0.304,-1.196 1.254,-1.196 h 3.724 c 0.951,0 1.254,0.245 1.254,1.196 v 2.665 c 0,0.951 -0.303,1.196 -1.254,1.196 h -3.724 c -0.95,0 -1.254,-0.245 -1.254,-1.196" style="fill:#0162a7;fill-opacity:1;fill-rule:evenodd;stroke:none" id="path51" inkscape:connector-curvature="0"/>
          <path d="m 171.898,475.017 h 1.059 v 2.734 c 0,0.147 -0.01,0.412 -0.049,0.804 0.137,-0.157 0.274,-0.284 0.421,-0.412 l 3.714,-3.126 h 0.804 v 5.057 h -1.059 v -2.656 c 0,-0.157 0.02,-0.451 0.049,-0.872 -0.176,0.206 -0.372,0.382 -0.578,0.549 l -3.557,2.979 h -0.804 v -5.057" style="fill:#0162a7;fill-opacity:1;fill-rule:nonzero;stroke:none" id="path53" inkscape:connector-curvature="0"/>
          <path d="m 179.456,475.017 h 1.176 l 0.588,1.107 h 3.205 l 0.608,-1.107 h 1.323 l -2.901,5.057 h -1.137 z m 2.264,2.019 1.127,2.058 1.088,-2.058 h -2.215" style="fill:#0162a7;fill-opacity:1;fill-rule:evenodd;stroke:none" id="path55" inkscape:connector-curvature="0"/>
          <path d="m 187.98,475.017 h 4.969 v 0.951 h -3.793 v 4.106 h -1.176 v -5.057" style="fill:#0162a7;fill-opacity:1;fill-rule:nonzero;stroke:none" id="path57" inkscape:connector-curvature="0"/>
          <path d="m 111.544,486.657 h 1.781 v 3.73 h 5.566 v -3.73 h 1.795 v 8.67 h -1.795 v -3.361 h -5.566 v 3.361 h -1.781 z" style="fill:#0162a7;fill-opacity:1;fill-rule:nonzero;stroke:#0162a7;stroke-width:0.175;stroke-linecap:butt;stroke-linejoin:miter;stroke-miterlimit:3.86400008;stroke-dasharray:none;stroke-opacity:1" id="path59" inkscape:connector-curvature="0"/>
          <path d="m 124.462,486.657 h 1.781 l 0.89,1.899 h 4.853 l 0.92,-1.899 h 2.004 l -4.393,8.67 h -1.721 z m 3.428,3.461 1.707,3.528 1.647,-3.528 h -3.354" style="fill:#0162a7;fill-opacity:1;fill-rule:evenodd;stroke:none" id="path61" inkscape:connector-curvature="0"/>
          <path d="m 124.462,486.657 h 1.781 l 0.89,1.899 h 4.853 l 0.92,-1.899 h 2.004 l -4.393,8.67 h -1.721 z m 3.428,3.461 1.707,3.528 1.647,-3.528 z" style="fill:none;stroke:#0162a7;stroke-width:0.175;stroke-linecap:butt;stroke-linejoin:miter;stroke-miterlimit:3.86400008;stroke-dasharray:none;stroke-opacity:1" id="path63" inkscape:connector-curvature="0"/>
          <path d="m 138.704,486.657 h 7.525 v 1.63 h -5.744 v 7.04 h -1.781 z" style="fill:#0162a7;fill-opacity:1;fill-rule:nonzero;stroke:#0162a7;stroke-width:0.175;stroke-linecap:butt;stroke-linejoin:miter;stroke-miterlimit:3.86400008;stroke-dasharray:none;stroke-opacity:1" id="path65" inkscape:connector-curvature="0"/>
          <path d="m 150.173,486.657 h 1.781 v 8.67 h -1.781 z" style="fill:#0162a7;fill-opacity:1;fill-rule:nonzero;stroke:#0162a7;stroke-width:0.175;stroke-linecap:butt;stroke-linejoin:miter;stroke-miterlimit:3.86400008;stroke-dasharray:none;stroke-opacity:1" id="path67" inkscape:connector-curvature="0"/>
          <path d="m 157.207,486.657 h 1.781 v 3.293 h 3.22 v 1.579 h -3.22 v 2.285 h 5.966 v 1.513 h -7.747 z" style="fill:#0162a7;fill-opacity:1;fill-rule:nonzero;stroke:#0162a7;stroke-width:0.175;stroke-linecap:butt;stroke-linejoin:miter;stroke-miterlimit:3.86400008;stroke-dasharray:none;stroke-opacity:1" id="path69" inkscape:connector-curvature="0"/>
          <path d="m 165.653,486.657 h 1.78 l 0.891,1.899 h 4.853 l 0.92,-1.899 h 2.003 l -4.392,8.67 h -1.722 z m 3.428,3.461 1.706,3.528 1.648,-3.528 h -3.354" style="fill:#0162a7;fill-opacity:1;fill-rule:evenodd;stroke:none" id="path71" inkscape:connector-curvature="0"/>
          <path d="m 165.653,486.657 h 1.78 l 0.891,1.899 h 4.853 l 0.92,-1.899 h 2.003 l -4.392,8.67 h -1.722 z m 3.428,3.461 1.706,3.528 1.648,-3.528 z" style="fill:none;stroke:#0162a7;stroke-width:0.175;stroke-linecap:butt;stroke-linejoin:miter;stroke-miterlimit:3.86400008;stroke-dasharray:none;stroke-opacity:1" id="path73" inkscape:connector-curvature="0"/>
          <path d="m 177.891,486.657 h 2.108 l 2.582,3.36 2.805,-3.36 h 2.419 l -4.126,4.688 3.339,3.982 h -2.048 l -2.33,-2.941 -2.448,2.941 h -2.36 l 3.695,-4.218 z" style="fill:#0162a7;fill-opacity:1;fill-rule:nonzero;stroke:#0162a7;stroke-width:0.175;stroke-linecap:butt;stroke-linejoin:miter;stroke-miterlimit:3.86400008;stroke-dasharray:none;stroke-opacity:1" id="path75" inkscape:connector-curvature="0"/>
        </g>
      </g>
    </g>
    <g transform="matrix(1.6162104,0,0,-1.6162104,-293.85305,689.44239)" id="g77">
      <g id="g79" clip-path="url(#clipPath83)">
        <path d="M 41.406,456.58 18.298,498.268 12.366,494.98 35.474,453.291" style="fill:#ffffff;fill-opacity:1;fill-rule:nonzero;stroke:none" id="path85" inkscape:connector-curvature="0"/>
        <path d="M 47.32,459.858 24.212,501.546 18.28,498.258 41.388,456.57" style="fill:#ffffff;fill-opacity:1;fill-rule:nonzero;stroke:none" id="path87" inkscape:connector-curvature="0"/>
        <path d="m 47.893,460.175 -23.094,41.662 -0.906,-0.502 23.093,-41.662" style="fill:#ffffff;fill-opacity:1;fill-rule:nonzero;stroke:none" id="path89" inkscape:connector-curvature="0"/>
        <path d="M 48.771,460.662 25.677,502.324 24.771,501.822 47.865,460.16" style="fill:#fdfcfa;fill-opacity:1;fill-rule:nonzero;stroke:none" id="path91" inkscape:connector-curvature="0"/>
        <path d="M 49.65,461.149 26.556,502.811 25.65,502.309 48.743,460.647" style="fill:#f9f8f7;fill-opacity:1;fill-rule:nonzero;stroke:none" id="path93" inkscape:connector-curvature="0"/>
        <path d="m 50.528,461.636 -23.094,41.662 -0.906,-0.502 23.094,-41.662" style="fill:#f7f6f3;fill-opacity:1;fill-rule:nonzero;stroke:none" id="path95" inkscape:connector-curvature="0"/>
        <path d="M 51.407,462.123 28.313,503.785 27.407,503.283 50.5,461.621" style="fill:#f4f3ef;fill-opacity:1;fill-rule:nonzero;stroke:none" id="path97" inkscape:connector-curvature="0"/>
        <path d="M 52.285,462.61 29.191,504.272 28.285,503.77 51.379,462.107" style="fill:#f1eeeb;fill-opacity:1;fill-rule:nonzero;stroke:none" id="path99" inkscape:connector-curvature="0"/>
        <path d="M 53.163,463.097 30.07,504.759 29.163,504.257 52.257,462.594" style="fill:#eeece7;fill-opacity:1;fill-rule:nonzero;stroke:none" id="path101" inkscape:connector-curvature="0"/>
        <path d="m 54.042,463.584 -23.094,41.662 -0.906,-0.502 23.094,-41.663" style="fill:#eae9e3;fill-opacity:1;fill-rule:nonzero;stroke:none" id="path103" inkscape:connector-curvature="0"/>
        <path d="M 54.92,464.071 31.827,505.733 30.92,505.231 54.014,463.568" style="fill:#e8e6df;fill-opacity:1;fill-rule:nonzero;stroke:none" id="path105" inkscape:connector-curvature="0"/>
        <path d="M 55.799,464.557 32.705,506.22 31.799,505.717 54.893,464.055" style="fill:#e5e3dc;fill-opacity:1;fill-rule:nonzero;stroke:none" id="path107" inkscape:connector-curvature="0"/>
        <path d="m 56.677,465.044 -23.094,41.663 -0.906,-0.503 23.094,-41.662" style="fill:#e1e0d7;fill-opacity:1;fill-rule:nonzero;stroke:none" id="path109" inkscape:connector-curvature="0"/>
        <path d="m 57.556,465.531 -23.094,41.663 -0.906,-0.503 23.093,-41.662" style="fill:#dfddd4;fill-opacity:1;fill-rule:nonzero;stroke:none" id="path111" inkscape:connector-curvature="0"/>
        <path d="M 58.434,466.018 35.34,507.681 34.434,507.178 57.528,465.516" style="fill:#dcdbd1;fill-opacity:1;fill-rule:nonzero;stroke:none" id="path113" inkscape:connector-curvature="0"/>
        <path d="m 59.312,466.505 -23.093,41.663 -0.907,-0.503 23.094,-41.662" style="fill:#d8d6ce;fill-opacity:1;fill-rule:nonzero;stroke:none" id="path115" inkscape:connector-curvature="0"/>
        <path d="M 60.191,466.992 37.097,508.654 36.191,508.152 59.285,466.49" style="fill:#d6d4c9;fill-opacity:1;fill-rule:nonzero;stroke:none" id="path117" inkscape:connector-curvature="0"/>
        <path d="m 61.069,467.479 -23.093,41.662 -0.907,-0.502 23.094,-41.662" style="fill:#d3d2c6;fill-opacity:1;fill-rule:nonzero;stroke:none" id="path119" inkscape:connector-curvature="0"/>
        <path d="m 61.948,467.966 -23.094,41.662 -0.906,-0.502 23.094,-41.662" style="fill:#d0cec3;fill-opacity:1;fill-rule:nonzero;stroke:none" id="path121" inkscape:connector-curvature="0"/>
        <path d="M 62.826,468.453 39.732,510.115 38.826,509.613 61.92,467.951" style="fill:#cecdc0;fill-opacity:1;fill-rule:nonzero;stroke:none" id="path123" inkscape:connector-curvature="0"/>
        <path d="M 63.705,468.94 40.611,510.602 39.705,510.1 62.798,468.438" style="fill:#cac9bc;fill-opacity:1;fill-rule:nonzero;stroke:none" id="path125" inkscape:connector-curvature="0"/>
        <path d="m 64.583,469.427 -23.094,41.662 -0.906,-0.502 23.094,-41.663" style="fill:#c8c6b8;fill-opacity:1;fill-rule:nonzero;stroke:none" id="path127" inkscape:connector-curvature="0"/>
        <path d="m 65.462,469.914 -23.094,41.662 -0.906,-0.502 23.093,-41.663" style="fill:#c5c4b5;fill-opacity:1;fill-rule:nonzero;stroke:none" id="path129" inkscape:connector-curvature="0"/>
        <path d="M 66.34,470.401 43.246,512.063 42.34,511.561 65.434,469.898" style="fill:#c1c0b2;fill-opacity:1;fill-rule:nonzero;stroke:none" id="path131" inkscape:connector-curvature="0"/>
        <path d="M 67.218,470.888 44.125,512.55 43.218,512.048 66.312,470.385" style="fill:#c0beae;fill-opacity:1;fill-rule:nonzero;stroke:none" id="path133" inkscape:connector-curvature="0"/>
        <path d="m 68.097,471.374 -23.094,41.663 -0.906,-0.503 23.094,-41.662" style="fill:#bcbbab;fill-opacity:1;fill-rule:nonzero;stroke:none" id="path135" inkscape:connector-curvature="0"/>
        <path d="m 68.975,471.861 -23.093,41.663 -0.907,-0.503 23.094,-41.662" style="fill:#b9b8a8;fill-opacity:1;fill-rule:nonzero;stroke:none" id="path137" inkscape:connector-curvature="0"/>
        <path d="M 69.854,472.348 46.76,514.011 45.854,513.508 68.948,471.846" style="fill:#b6b6a5;fill-opacity:1;fill-rule:nonzero;stroke:none" id="path139" inkscape:connector-curvature="0"/>
        <path d="m 70.732,472.835 -23.094,41.663 -0.906,-0.503 23.094,-41.662" style="fill:#b2b3a2;fill-opacity:1;fill-rule:nonzero;stroke:none" id="path141" inkscape:connector-curvature="0"/>
        <path d="M 71.611,473.322 48.517,514.984 47.611,514.482 70.704,472.82" style="fill:#afb09e;fill-opacity:1;fill-rule:nonzero;stroke:none" id="path143" inkscape:connector-curvature="0"/>
        <path d="m 72.489,473.809 -23.094,41.662 -0.906,-0.502 23.094,-41.662" style="fill:#adae9b;fill-opacity:1;fill-rule:nonzero;stroke:none" id="path145" inkscape:connector-curvature="0"/>
        <path d="M 73.069,474.13 49.975,515.793 49.069,515.29 72.162,473.628" style="fill:#adae9b;fill-opacity:1;fill-rule:nonzero;stroke:none" id="path147" inkscape:connector-curvature="0"/>
        <path d="M 73.954,474.621 50.86,516.283 49.954,515.781 73.048,474.119" style="fill:#afb09d;fill-opacity:1;fill-rule:nonzero;stroke:none" id="path149" inkscape:connector-curvature="0"/>
        <path d="M 74.839,475.112 51.746,516.774 50.839,516.272 73.933,474.61" style="fill:#b2b2a0;fill-opacity:1;fill-rule:nonzero;stroke:none" id="path151" inkscape:connector-curvature="0"/>
        <path d="M 75.725,475.603 52.631,517.265 51.725,516.763 74.819,475.1" style="fill:#b3b5a3;fill-opacity:1;fill-rule:nonzero;stroke:none" id="path153" inkscape:connector-curvature="0"/>
        <path d="M 76.61,476.094 53.517,517.756 52.61,517.254 75.704,475.591" style="fill:#b7b7a6;fill-opacity:1;fill-rule:nonzero;stroke:none" id="path155" inkscape:connector-curvature="0"/>
        <path d="m 77.496,476.584 -23.094,41.663 -0.906,-0.503 23.093,-41.662" style="fill:#b9b8a8;fill-opacity:1;fill-rule:nonzero;stroke:none" id="path157" inkscape:connector-curvature="0"/>
        <path d="m 78.381,477.075 -23.094,41.662 -0.906,-0.502 23.094,-41.662" style="fill:#bbbbaa;fill-opacity:1;fill-rule:nonzero;stroke:none" id="path159" inkscape:connector-curvature="0"/>
        <path d="M 79.266,477.566 56.173,519.228 55.266,518.726 78.36,477.064" style="fill:#bdbdad;fill-opacity:1;fill-rule:nonzero;stroke:none" id="path161" inkscape:connector-curvature="0"/>
        <path d="m 80.152,478.057 -23.094,41.662 -0.906,-0.502 23.094,-41.663" style="fill:#c0c0af;fill-opacity:1;fill-rule:nonzero;stroke:none" id="path163" inkscape:connector-curvature="0"/>
        <path d="M 81.037,478.547 57.943,520.21 57.037,519.707 80.131,478.045" style="fill:#c3c1b2;fill-opacity:1;fill-rule:nonzero;stroke:none" id="path165" inkscape:connector-curvature="0"/>
        <path d="m 81.923,479.038 -23.094,41.663 -0.906,-0.503 23.093,-41.662" style="fill:#c5c4b5;fill-opacity:1;fill-rule:nonzero;stroke:none" id="path167" inkscape:connector-curvature="0"/>
        <path d="m 82.808,479.529 -23.094,41.662 -0.906,-0.502 23.094,-41.662" style="fill:#c8c6b8;fill-opacity:1;fill-rule:nonzero;stroke:none" id="path169" inkscape:connector-curvature="0"/>
        <path d="M 83.693,480.02 60.6,521.682 59.693,521.18 82.787,479.517" style="fill:#cac8ba;fill-opacity:1;fill-rule:nonzero;stroke:none" id="path171" inkscape:connector-curvature="0"/>
        <path d="m 84.579,480.511 -23.094,41.662 -0.906,-0.502 23.094,-41.663" style="fill:#cdcabd;fill-opacity:1;fill-rule:nonzero;stroke:none" id="path173" inkscape:connector-curvature="0"/>
        <path d="M 85.464,481.001 62.37,522.664 61.464,522.161 84.558,480.499" style="fill:#cecdc0;fill-opacity:1;fill-rule:nonzero;stroke:none" id="path175" inkscape:connector-curvature="0"/>
        <path d="M 86.35,481.492 63.256,523.154 62.35,522.652 85.443,480.99" style="fill:#d0cec3;fill-opacity:1;fill-rule:nonzero;stroke:none" id="path177" inkscape:connector-curvature="0"/>
        <path d="m 87.235,481.983 -23.094,41.662 -0.906,-0.502 23.094,-41.662" style="fill:#d2d1c5;fill-opacity:1;fill-rule:nonzero;stroke:none" id="path179" inkscape:connector-curvature="0"/>
        <path d="M 88.12,482.474 65.027,524.136 64.12,523.634 87.214,481.971" style="fill:#d5d3c8;fill-opacity:1;fill-rule:nonzero;stroke:none" id="path181" inkscape:connector-curvature="0"/>
        <path d="m 89.006,482.964 -23.094,41.663 -0.906,-0.503 23.093,-41.662" style="fill:#d7d5cb;fill-opacity:1;fill-rule:nonzero;stroke:none" id="path183" inkscape:connector-curvature="0"/>
        <path d="m 89.891,483.455 -23.094,41.663 -0.906,-0.503 23.094,-41.662" style="fill:#dad8cf;fill-opacity:1;fill-rule:nonzero;stroke:none" id="path185" inkscape:connector-curvature="0"/>
        <path d="M 90.776,483.946 67.683,525.608 66.776,525.106 89.87,483.444" style="fill:#dcdbd1;fill-opacity:1;fill-rule:nonzero;stroke:none" id="path187" inkscape:connector-curvature="0"/>
        <path d="m 91.662,484.437 -23.094,41.662 -0.906,-0.502 23.094,-41.662" style="fill:#deddd4;fill-opacity:1;fill-rule:nonzero;stroke:none" id="path189" inkscape:connector-curvature="0"/>
        <path d="M 92.547,484.928 69.454,526.59 68.547,526.088 91.641,484.425" style="fill:#e1dfd6;fill-opacity:1;fill-rule:nonzero;stroke:none" id="path191" inkscape:connector-curvature="0"/>
        <path d="m 93.433,485.418 -23.094,41.663 -0.906,-0.503 23.093,-41.662" style="fill:#e3e1da;fill-opacity:1;fill-rule:nonzero;stroke:none" id="path193" inkscape:connector-curvature="0"/>
        <path d="m 94.318,485.909 -23.094,41.662 -0.906,-0.502 23.094,-41.662" style="fill:#e6e3dd;fill-opacity:1;fill-rule:nonzero;stroke:none" id="path195" inkscape:connector-curvature="0"/>
        <path d="M 95.203,486.4 72.11,528.062 71.203,527.56 94.297,485.898" style="fill:#e8e6df;fill-opacity:1;fill-rule:nonzero;stroke:none" id="path197" inkscape:connector-curvature="0"/>
        <path d="m 96.089,486.891 -23.094,41.662 -0.906,-0.502 23.094,-41.663" style="fill:#eae8e2;fill-opacity:1;fill-rule:nonzero;stroke:none" id="path199" inkscape:connector-curvature="0"/>
        <path d="m 96.974,487.381 -23.093,41.663 -0.907,-0.502 23.094,-41.663" style="fill:#ecebe6;fill-opacity:1;fill-rule:nonzero;stroke:none" id="path201" inkscape:connector-curvature="0"/>
        <path d="M 97.86,487.872 74.766,529.535 73.86,529.032 96.953,487.37" style="fill:#eeede8;fill-opacity:1;fill-rule:nonzero;stroke:none" id="path203" inkscape:connector-curvature="0"/>
        <path d="m 98.745,488.363 -23.094,41.662 -0.906,-0.502 23.094,-41.662" style="fill:#f1efeb;fill-opacity:1;fill-rule:nonzero;stroke:none" id="path205" inkscape:connector-curvature="0"/>
        <path d="M 99.63,488.854 76.537,530.516 75.63,530.014 98.724,488.352" style="fill:#f4f3ef;fill-opacity:1;fill-rule:nonzero;stroke:none" id="path207" inkscape:connector-curvature="0"/>
        <path d="M 100.516,489.345 77.422,531.007 76.516,530.505 99.61,488.842" style="fill:#f6f5f2;fill-opacity:1;fill-rule:nonzero;stroke:none" id="path209" inkscape:connector-curvature="0"/>
        <path d="m 101.401,489.835 -23.094,41.663 -0.906,-0.503 23.094,-41.662" style="fill:#f8f7f5;fill-opacity:1;fill-rule:nonzero;stroke:none" id="path211" inkscape:connector-curvature="0"/>
        <path d="m 102.287,490.326 -23.094,41.662 -0.906,-0.502 23.093,-41.662" style="fill:#faf9f8;fill-opacity:1;fill-rule:nonzero;stroke:none" id="path213" inkscape:connector-curvature="0"/>
        <path d="m 103.172,490.817 -23.094,41.662 -0.906,-0.502 23.094,-41.662" style="fill:#fdfdfc;fill-opacity:1;fill-rule:nonzero;stroke:none" id="path215" inkscape:connector-curvature="0"/>
        <path d="m 104.057,491.308 -23.093,41.662 -0.907,-0.502 23.094,-41.663" style="fill:#ffffff;fill-opacity:1;fill-rule:nonzero;stroke:none" id="path217" inkscape:connector-curvature="0"/>
        <path d="m 107.316,493.114 -23.104,41.68 -3.536,-1.96 23.104,-41.68" style="fill:#ffffff;fill-opacity:1;fill-rule:nonzero;stroke:none" id="path219" inkscape:connector-curvature="0"/>
        <path d="m 110.882,495.091 -23.103,41.68 -3.537,-1.96 23.104,-41.68" style="fill:#ffffff;fill-opacity:1;fill-rule:nonzero;stroke:none" id="path221" inkscape:connector-curvature="0"/>
      </g>
    </g>
    <g transform="matrix(1.6162104,0,0,-1.6162104,-293.85305,689.44239)" id="g223">
      <g id="g225" clip-path="url(#clipPath229)">
        <g id="g231" clip-path="url(#clipPath235)">
          <g id="g237" clip-path="url(#clipPath241)">
            <path d="m 29.578,463.341 16.879,62.993 -0.919,0.247 -16.879,-62.994" style="fill:#ffffff;fill-opacity:1;fill-rule:nonzero;stroke:none" id="path243" inkscape:connector-curvature="0"/>
            <path d="m 30.527,463.086 16.879,62.994 -0.919,0.246 -16.879,-62.994" style="fill:#f7f7fa;fill-opacity:1;fill-rule:nonzero;stroke:none" id="path245" inkscape:connector-curvature="0"/>
            <path d="m 31.477,462.832 16.879,62.994 -0.919,0.246 -16.879,-62.994" style="fill:#eff1f7;fill-opacity:1;fill-rule:nonzero;stroke:none" id="path247" inkscape:connector-curvature="0"/>
            <path d="m 32.426,462.577 16.879,62.994 -0.919,0.246 -16.879,-62.993" style="fill:#e7e9f3;fill-opacity:1;fill-rule:nonzero;stroke:none" id="path249" inkscape:connector-curvature="0"/>
            <path d="m 33.376,462.323 16.879,62.994 -0.919,0.246 -16.88,-62.994" style="fill:#dde2ef;fill-opacity:1;fill-rule:nonzero;stroke:none" id="path251" inkscape:connector-curvature="0"/>
            <path d="m 34.325,462.069 16.879,62.993 -0.919,0.247 -16.879,-62.994" style="fill:#d5dbec;fill-opacity:1;fill-rule:nonzero;stroke:none" id="path253" inkscape:connector-curvature="0"/>
            <path d="m 35.274,461.814 16.88,62.994 -0.92,0.246 -16.879,-62.994" style="fill:#cdd4e9;fill-opacity:1;fill-rule:nonzero;stroke:none" id="path255" inkscape:connector-curvature="0"/>
            <path d="M 36.224,461.56 53.103,524.553 52.184,524.8 35.305,461.806" style="fill:#c5cee6;fill-opacity:1;fill-rule:nonzero;stroke:none" id="path257" inkscape:connector-curvature="0"/>
            <path d="m 37.173,461.305 16.879,62.994 -0.919,0.246 -16.879,-62.993" style="fill:#bcc6e1;fill-opacity:1;fill-rule:nonzero;stroke:none" id="path259" inkscape:connector-curvature="0"/>
            <path d="m 38.123,461.051 16.879,62.994 -0.919,0.246 -16.879,-62.994" style="fill:#b3c0de;fill-opacity:1;fill-rule:nonzero;stroke:none" id="path261" inkscape:connector-curvature="0"/>
            <path d="m 39.072,460.797 16.879,62.993 -0.919,0.247 -16.879,-62.994" style="fill:#abb9db;fill-opacity:1;fill-rule:nonzero;stroke:none" id="path263" inkscape:connector-curvature="0"/>
            <path d="m 40.022,460.542 16.879,62.994 -0.919,0.246 -16.88,-62.994" style="fill:#a3b2d6;fill-opacity:1;fill-rule:nonzero;stroke:none" id="path265" inkscape:connector-curvature="0"/>
            <path d="m 40.971,460.288 16.879,62.993 -0.919,0.247 -16.879,-62.994" style="fill:#9aadd2;fill-opacity:1;fill-rule:nonzero;stroke:none" id="path267" inkscape:connector-curvature="0"/>
            <path d="M 41.92,460.033 58.8,523.027 57.88,523.273 41.001,460.28" style="fill:#91a6cf;fill-opacity:1;fill-rule:nonzero;stroke:none" id="path269" inkscape:connector-curvature="0"/>
            <path d="m 42.87,459.779 16.879,62.994 -0.919,0.246 -16.879,-62.994" style="fill:#879fcb;fill-opacity:1;fill-rule:nonzero;stroke:none" id="path271" inkscape:connector-curvature="0"/>
            <path d="m 43.819,459.525 16.879,62.993 -0.919,0.247 L 42.9,459.771" style="fill:#7f99c8;fill-opacity:1;fill-rule:nonzero;stroke:none" id="path273" inkscape:connector-curvature="0"/>
            <path d="M 44.769,459.27 61.648,522.264 60.729,522.51 43.85,459.516" style="fill:#7793c5;fill-opacity:1;fill-rule:nonzero;stroke:none" id="path275" inkscape:connector-curvature="0"/>
            <path d="m 45.718,459.016 16.879,62.994 -0.919,0.246 -16.879,-62.994" style="fill:#6d8dc0;fill-opacity:1;fill-rule:nonzero;stroke:none" id="path277" inkscape:connector-curvature="0"/>
            <path d="m 46.668,458.761 16.879,62.994 -0.919,0.246 -16.88,-62.993" style="fill:#6287bd;fill-opacity:1;fill-rule:nonzero;stroke:none" id="path279" inkscape:connector-curvature="0"/>
            <path d="m 47.617,458.507 16.879,62.994 -0.919,0.246 -16.879,-62.994" style="fill:#5982bb;fill-opacity:1;fill-rule:nonzero;stroke:none" id="path281" inkscape:connector-curvature="0"/>
            <path d="m 48.566,458.253 16.88,62.993 -0.92,0.247 -16.879,-62.994" style="fill:#4d7db8;fill-opacity:1;fill-rule:nonzero;stroke:none" id="path283" inkscape:connector-curvature="0"/>
            <path d="m 49.516,457.998 16.879,62.994 -0.919,0.246 -16.879,-62.994" style="fill:#4277b3;fill-opacity:1;fill-rule:nonzero;stroke:none" id="path285" inkscape:connector-curvature="0"/>
            <path d="m 50.465,457.744 16.879,62.993 -0.919,0.247 -16.879,-62.994" style="fill:#3671b0;fill-opacity:1;fill-rule:nonzero;stroke:none" id="path287" inkscape:connector-curvature="0"/>
            <path d="m 51.415,457.489 16.879,62.994 -0.919,0.246 -16.879,-62.993" style="fill:#286cad;fill-opacity:1;fill-rule:nonzero;stroke:none" id="path289" inkscape:connector-curvature="0"/>
            <path d="m 52.364,457.235 16.879,62.994 -0.919,0.246 -16.879,-62.994" style="fill:#0f67aa;fill-opacity:1;fill-rule:nonzero;stroke:none" id="path291" inkscape:connector-curvature="0"/>
            <path d="m 53.314,456.981 16.879,62.993 -0.919,0.247 -16.879,-62.994" style="fill:#0162a7;fill-opacity:1;fill-rule:nonzero;stroke:none" id="path293" inkscape:connector-curvature="0"/>
            <path d="M 95.925,445.563 112.811,508.581 69.885,520.083 53,457.065" style="fill:#0162a7;fill-opacity:1;fill-rule:nonzero;stroke:none" id="path295" inkscape:connector-curvature="0"/>
          </g>
        </g>
      </g>
    </g>
    <g transform="matrix(1.6162104,0,0,-1.6162104,-293.85305,689.44239)" id="g297">
      <g id="g299" clip-path="url(#clipPath303)">
        <g id="g305" clip-path="url(#clipPath309)">
          <path d="m 100.465,463.693 h 1.176 l 0.588,1.108 h 3.205 l 0.607,-1.108 h 1.324 l -2.901,5.057 h -1.137 z m 2.264,2.019 1.127,2.058 1.088,-2.058 h -2.215" style="fill:#0162a7;fill-opacity:1;fill-rule:evenodd;stroke:none" id="path311" inkscape:connector-curvature="0"/>
          <path d="m 108.989,463.693 h 1.176 v 5.057 h -1.176 z" style="fill:#0162a7;fill-opacity:1;fill-rule:nonzero;stroke:none" id="path313" inkscape:connector-curvature="0"/>
          <path d="m 112.752,463.693 h 1.156 v 1.911 h 1.118 l 2.038,-1.911 h 1.686 l -2.333,1.911 h 0.667 c 0.774,0 1.136,0.275 1.136,0.98 v 1.186 c 0,0.706 -0.362,0.98 -1.136,0.98 h -4.332 z m 3.802,4.185 c 0.363,0 0.53,-0.069 0.53,-0.402 v -0.607 c 0,-0.334 -0.167,-0.402 -0.53,-0.402 h -2.646 v 1.411 h 2.646" style="fill:#0162a7;fill-opacity:1;fill-rule:evenodd;stroke:none" id="path315" inkscape:connector-curvature="0"/>
          <path d="m 120.612,463.693 h 1.156 v 1.97 h 3.175 c 0.774,0 1.137,0.274 1.137,0.98 v 1.127 c 0,0.706 -0.363,0.98 -1.137,0.98 h -4.331 z m 3.802,4.185 c 0.363,0 0.529,-0.069 0.529,-0.402 v -0.539 c 0,-0.333 -0.166,-0.402 -0.529,-0.402 h -2.646 v 1.343 h 2.646" style="fill:#0162a7;fill-opacity:1;fill-rule:evenodd;stroke:none" id="path317" inkscape:connector-curvature="0"/>
          <path d="m 128.961,467.848 h 3.881 v -3.205 h -3.881 z m -1.176,-0.293 v -2.666 c 0,-0.951 0.303,-1.196 1.254,-1.196 h 3.724 c 0.951,0 1.254,0.245 1.254,1.196 v 2.666 c 0,0.95 -0.303,1.195 -1.254,1.195 h -3.724 c -0.951,0 -1.254,-0.245 -1.254,-1.195" style="fill:#0162a7;fill-opacity:1;fill-rule:evenodd;stroke:none" id="path319" inkscape:connector-curvature="0"/>
          <path d="m 136.502,463.693 h 1.156 v 1.911 h 1.118 l 2.038,-1.911 h 1.685 l -2.332,1.911 h 0.666 c 0.775,0 1.137,0.275 1.137,0.98 v 1.186 c 0,0.706 -0.362,0.98 -1.137,0.98 h -4.331 z m 3.802,4.185 c 0.363,0 0.529,-0.069 0.529,-0.402 v -0.607 c 0,-0.334 -0.166,-0.402 -0.529,-0.402 h -2.646 v 1.411 h 2.646" style="fill:#0162a7;fill-opacity:1;fill-rule:evenodd;stroke:none" id="path321" inkscape:connector-curvature="0"/>
          <path d="m 146.527,467.848 h 2.333 v 0.902 h -5.831 v -0.902 h 2.322 v -4.155 h 1.176 v 4.155" style="fill:#0162a7;fill-opacity:1;fill-rule:nonzero;stroke:none" id="path323" inkscape:connector-curvature="0"/>
        </g>
      </g>
    </g>
  </g>
</svg>